<svg width="40" height="32" viewBox="0 0 40 32" fill="none" xmlns="http://www.w3.org/2000/svg">
<mask id="mask0_2318_181" style="mask-type:luminance" maskUnits="userSpaceOnUse" x="0" y="0" width="41" height="32">
<path d="M24.0005 0H16.0005C8.4585 0 4.6865 -2.38419e-07 2.3445 2.344C0.6565 4.03 0.1845 6.458 0.0525 10.5H39.9485C39.8165 6.458 39.3445 4.03 37.6565 2.344C35.3145 -2.38419e-07 31.5425 0 24.0005 0ZM16.0005 32H24.0005C31.5425 32 35.3145 32 37.6565 29.656C39.9985 27.312 40.0005 23.542 40.0005 16C40.0005 15.1173 39.9992 14.284 39.9965 13.5H0.00450016C0.000500157 14.284 -0.000833363 15.1173 0.000499971 16C0.000499971 23.542 0.000499725 27.314 2.3445 29.656C4.6885 31.998 8.4585 32 16.0005 32Z" fill="white"/>
<path fill-rule="evenodd" clip-rule="evenodd" d="M6.5005 24C6.5005 23.6022 6.65853 23.2206 6.93984 22.9393C7.22114 22.658 7.60267 22.5 8.0005 22.5H16.0005C16.3983 22.5 16.7799 22.658 17.0612 22.9393C17.3425 23.2206 17.5005 23.6022 17.5005 24C17.5005 24.3978 17.3425 24.7794 17.0612 25.0607C16.7799 25.342 16.3983 25.5 16.0005 25.5H8.0005C7.60267 25.5 7.22114 25.342 6.93984 25.0607C6.65853 24.7794 6.5005 24.3978 6.5005 24ZM19.5005 24C19.5005 23.6022 19.6585 23.2206 19.9398 22.9393C20.2211 22.658 20.6027 22.5 21.0005 22.5H24.0005C24.3983 22.5 24.7799 22.658 25.0612 22.9393C25.3425 23.2206 25.5005 23.6022 25.5005 24C25.5005 24.3978 25.3425 24.7794 25.0612 25.0607C24.7799 25.342 24.3983 25.5 24.0005 25.5H21.0005C20.6027 25.5 20.2211 25.342 19.9398 25.0607C19.6585 24.7794 19.5005 24.3978 19.5005 24Z" fill="black"/>
</mask>
<g mask="url(#mask0_2318_181)">
<path d="M-3.9995 -8H44.0005V40H-3.9995V-8Z" fill="white"/>
</g>
</svg>
