<svg width="38" height="38" viewBox="0 0 38 38" fill="none" xmlns="http://www.w3.org/2000/svg">
<path d="M25.4348 16.6205H26.5384C27.3186 16.6227 28.0915 16.47 28.8123 16.1714C29.5332 15.8728 30.1876 15.4341 30.7377 14.8809L36.8125 8.75781L35.1634 7.09531L28.9602 13.2985L27.671 12.0093L33.8742 5.80539L32.1671 4.14957L25.987 10.329L24.7015 9.03984L30.9047 2.8359L29.2422 1.1875L23.1191 7.2623C22.5658 7.81256 22.1272 8.46711 21.8286 9.18805C21.5299 9.90899 21.3773 10.682 21.3795 11.4623V12.5652L18.1784 15.7663L3.5625 1.1875C0.276094 5.25988 2.21691 12.7441 5.91672 16.4446L12.2624 22.7904C14.2329 24.7609 14.6241 24.9368 16.8595 24.0372C17.3412 23.8435 17.5164 23.865 17.9654 24.3133L18.9302 25.2136C19.1477 25.4363 19.1529 25.5016 19.1529 25.9276V26.3388C19.1529 27.9033 20.1534 28.8028 20.8124 29.4737L28.5 36.8125L33.8438 31.4688L22.2337 19.8216L25.4348 16.6205Z" fill="white"/>
<path d="M16.8751 26.3173C14.6619 26.7708 13.3045 27.1886 10.709 24.5932C10.6675 24.5516 10.6244 24.5115 10.5829 24.47L9.13559 23.0227L1.1875 30.875L7.125 36.8125L17.8125 26.125L16.8751 26.3173Z" fill="white"/>
</svg>
