<svg width="276" height="72" viewBox="0 0 276 72" fill="none" xmlns="http://www.w3.org/2000/svg">
<path d="M73.92 41.712V21.456H82.784C84.5547 21.456 86.0373 21.6053 87.232 21.904C88.4267 22.1813 89.3867 22.6827 90.112 23.408C90.8373 24.1333 91.36 25.1467 91.68 26.448C92 27.728 92.16 29.3813 92.16 31.408C92.16 33.52 92 35.248 91.68 36.592C91.36 37.936 90.8373 38.9813 90.112 39.728C89.3867 40.4747 88.4267 40.9973 87.232 41.296C86.0373 41.5733 84.5547 41.712 82.784 41.712H73.92ZM82.048 25.776H79.04V37.392H82.048C83.2853 37.392 84.256 37.2533 84.96 36.976C85.6853 36.6987 86.1973 36.1333 86.496 35.28C86.816 34.4267 86.976 33.136 86.976 31.408C86.976 29.7653 86.816 28.5493 86.496 27.76C86.1973 26.9493 85.6853 26.416 84.96 26.16C84.256 25.904 83.2853 25.776 82.048 25.776ZM113.918 41.616V41.712H108.478C108.328 41.2 108.147 40.6133 107.934 39.952C107.742 39.2907 107.528 38.5867 107.294 37.84H100.382C99.9548 39.3333 99.5602 40.624 99.1975 41.712H93.7575V41.648L100.318 21.456H107.358L113.918 41.616ZM103.774 25.104C103.56 26.192 103.251 27.5147 102.845 29.072C102.44 30.6293 102.014 32.2187 101.566 33.84H106.142C105.672 32.2187 105.235 30.6293 104.83 29.072C104.424 27.5147 104.115 26.192 103.902 25.104H103.774ZM120.33 41.712V25.776H114.57V21.456H131.21V25.776H125.45V41.712H120.33ZM133.451 41.712V21.456H148.491V25.616H138.571V29.456H147.179V33.616H138.571V37.552H148.491V41.712H133.451ZM165.759 41.712H160.639V21.456H175.679V25.616H165.759V30.256H175.039V34.416H165.759V41.712ZM196.636 41.616V41.712H191.196C191.047 41.2 190.866 40.6133 190.652 39.952C190.46 39.2907 190.247 38.5867 190.012 37.84H183.1C182.674 39.3333 182.279 40.624 181.916 41.712H176.476V41.648L183.036 21.456H190.076L196.636 41.616ZM186.492 25.104C186.279 26.192 185.97 27.5147 185.564 29.072C185.159 30.6293 184.732 32.2187 184.284 33.84H188.86C188.391 32.2187 187.954 30.6293 187.548 29.072C187.143 27.5147 186.834 26.192 186.62 25.104H186.492ZM213.993 37.328V41.36C212.969 41.5733 211.966 41.7333 210.985 41.84C210.003 41.9467 208.841 42 207.497 42C205.769 42 204.307 41.8507 203.113 41.552C201.939 41.2533 200.99 40.7307 200.265 39.984C199.561 39.216 199.049 38.1387 198.729 36.752C198.409 35.3653 198.249 33.584 198.249 31.408C198.249 29.3173 198.409 27.6 198.729 26.256C199.049 24.912 199.561 23.8773 200.265 23.152C200.99 22.4053 201.939 21.8933 203.113 21.616C204.307 21.3173 205.769 21.168 207.497 21.168C208.841 21.168 210.003 21.2213 210.985 21.328C211.966 21.4133 212.969 21.5733 213.993 21.808V25.968L213.897 26.032C213.001 25.8187 212.137 25.6693 211.305 25.584C210.473 25.4773 209.449 25.424 208.233 25.424C207.251 25.424 206.441 25.4987 205.801 25.648C205.182 25.776 204.691 26.0427 204.329 26.448C203.966 26.8533 203.71 27.4507 203.561 28.24C203.433 29.0293 203.369 30.0853 203.369 31.408C203.369 32.7947 203.433 33.9147 203.561 34.768C203.71 35.6 203.966 36.2293 204.329 36.656C204.691 37.0827 205.182 37.3707 205.801 37.52C206.441 37.6693 207.251 37.744 208.233 37.744C209.427 37.744 210.441 37.712 211.273 37.648C212.126 37.5627 212.979 37.4133 213.833 37.2L213.993 37.328ZM220.861 41.712V25.776H215.101V21.456H231.741V25.776H225.981V41.712H220.861ZM233.343 31.568C233.343 28.9867 233.631 26.9387 234.207 25.424C234.804 23.9093 235.817 22.8213 237.247 22.16C238.697 21.4987 240.713 21.168 243.295 21.168C245.236 21.168 246.847 21.3493 248.127 21.712C249.407 22.0747 250.42 22.6613 251.167 23.472C251.913 24.2827 252.436 25.36 252.735 26.704C253.055 28.0267 253.215 29.648 253.215 31.568C253.215 33.5093 253.055 35.152 252.735 36.496C252.436 37.8187 251.913 38.8853 251.167 39.696C250.42 40.5067 249.407 41.0933 248.127 41.456C246.847 41.8187 245.236 42 243.295 42C241.353 42 239.743 41.8187 238.463 41.456C237.183 41.0933 236.169 40.5067 235.423 39.696C234.676 38.8853 234.143 37.8187 233.823 36.496C233.503 35.152 233.343 33.5093 233.343 31.568ZM243.295 37.52C244.66 37.52 245.684 37.3493 246.367 37.008C247.049 36.6667 247.508 36.0693 247.743 35.216C247.977 34.3413 248.095 33.1253 248.095 31.568C248.095 30.032 247.977 28.8373 247.743 27.984C247.508 27.1307 247.049 26.5333 246.367 26.192C245.684 25.8293 244.66 25.648 243.295 25.648C241.951 25.648 240.927 25.8293 240.223 26.192C239.54 26.5333 239.071 27.1307 238.815 27.984C238.58 28.8373 238.463 30.032 238.463 31.568C238.463 33.1253 238.58 34.3413 238.815 35.216C239.071 36.0693 239.54 36.6667 240.223 37.008C240.927 37.3493 241.951 37.52 243.295 37.52ZM261.54 41.712H256.42V21.456H266.084C268.623 21.456 270.468 22.032 271.62 23.184C272.793 24.3147 273.38 25.9893 273.38 28.208C273.38 29.872 272.964 31.3013 272.132 32.496C271.3 33.6693 270.201 34.4053 268.836 34.704L268.804 34.8C269.337 35.1413 269.924 35.7067 270.564 36.496C271.204 37.2853 271.833 38.1493 272.452 39.088C273.092 40.0053 273.657 40.8693 274.148 41.68V41.712H268.196L264.74 36.592C264.441 36.144 264.196 35.824 264.004 35.632C263.833 35.44 263.62 35.3227 263.364 35.28C263.129 35.2373 262.745 35.216 262.212 35.216H261.54V41.712ZM265.252 25.616H261.54V31.056H265.252C266.319 31.056 267.055 30.8427 267.46 30.416C267.887 29.9893 268.1 29.296 268.1 28.336C268.1 27.376 267.887 26.6827 267.46 26.256C267.055 25.8293 266.319 25.616 265.252 25.616Z" fill="white"/>
<path d="M36.0445 47.5002L24 60.5002C8.55 46.4902 4.5 38.8102 4.5 27.5002C4.5 18.2302 13.3045 11.0002 22.5445 11.0002C27.7645 11.0002 32.7745 18.1902 36.0445 22.0002C39.3145 18.1902 44.3245 11.0002 49.5445 11.0002C58.7845 11.0002 67.5 18.2302 67.5 27.5002C67.5 38.8102 63.95 46.4902 48.5 60.5002L36.0445 47.5002Z" fill="url(#paint0_linear_121_254)"/>
<path d="M36 68L29.0718 58.25H42.9282L36 68Z" fill="white"/>
<path d="M36 0L42.9282 9.75L29.0718 9.75L36 0Z" fill="white"/>
<path d="M36 64L36 8" stroke="white" stroke-width="2"/>
<path d="M29.9012 43.7476L22.3065 43.6038L22.3694 40.2804C22.382 39.6165 22.4485 39.0616 22.569 38.6158C22.6815 38.1699 22.8762 37.8135 23.1533 37.5467C23.4304 37.2799 23.8141 37.0911 24.3043 36.9804C24.7864 36.8695 25.4075 36.8212 26.1673 36.8356C26.9592 36.8506 27.6059 36.9229 28.1076 37.0524C28.6092 37.1819 28.9974 37.3853 29.2722 37.6626C29.547 37.9398 29.7362 38.3035 29.8397 38.7535C29.9352 39.2034 29.9767 39.7603 29.9641 40.4241L29.9012 43.7476ZM23.9839 40.587L23.9626 41.7148L28.3178 41.7972L28.3392 40.6694C28.3479 40.2055 28.3028 39.8406 28.2039 39.5747C28.105 39.3008 27.8967 39.1048 27.5789 38.9867C27.2612 38.8607 26.7784 38.7916 26.1305 38.7793C25.5146 38.7676 25.0576 38.819 24.7594 38.9334C24.4533 39.0396 24.2497 39.2278 24.1486 39.4979C24.0476 39.76 23.9927 40.1231 23.9839 40.587ZM28.3878 33.662C28.5641 33.6494 28.7163 33.6402 28.8444 33.6347C28.9645 33.6289 29.0926 33.6274 29.2286 33.6299C29.3565 33.6324 29.4884 33.6389 29.6243 33.6494C29.7521 33.6599 29.8998 33.6747 30.0675 33.6938C30.0957 33.8944 30.1199 34.0949 30.1401 34.2953C30.1603 34.4957 30.1686 34.6959 30.1648 34.8959C30.1611 35.0879 30.1455 35.2796 30.1179 35.4711C30.0902 35.6626 30.0585 35.8581 30.0228 36.0574C29.8623 36.0784 29.7181 36.0917 29.5899 36.0972C29.4538 36.1027 29.3217 36.1042 29.1938 36.1017C29.0738 36.0995 28.9459 36.093 28.8101 36.0825C28.6742 36.0719 28.5186 36.0529 28.3431 36.0256C28.2786 35.6243 28.2501 35.2277 28.2576 34.8358C28.265 34.4438 28.3084 34.0526 28.3878 33.662ZM30.1482 30.6971L30.1119 32.6167L22.5173 32.4729L22.624 26.834L24.1837 26.8635L24.1133 30.5828L25.853 30.6158L25.9189 27.1364L27.4786 27.1659L27.4127 30.6453L30.1482 30.6971ZM28.5701 24.0309C28.7464 24.0183 28.8986 24.0092 29.0267 24.0036C29.1469 23.9979 29.2749 23.9963 29.4109 23.9989C29.5389 24.0013 29.6708 24.0078 29.8066 24.0184C29.9344 24.0288 30.0822 24.0436 30.2498 24.0627C30.278 24.2633 30.3023 24.4638 30.3225 24.6642C30.3427 24.8646 30.3509 25.0648 30.3471 25.2648C30.3435 25.4568 30.3278 25.6485 30.3002 25.84C30.2726 26.0315 30.2409 26.227 30.2051 26.4263C30.0447 26.4473 29.9004 26.4606 29.7723 26.4661C29.6361 26.4716 29.5041 26.4731 29.3761 26.4706C29.2561 26.4684 29.1282 26.4619 28.9924 26.4514C28.8566 26.4408 28.7009 26.4219 28.5254 26.3945C28.461 25.9932 28.4325 25.5966 28.4399 25.2047C28.4473 24.8128 28.4907 24.4215 28.5701 24.0309Z" fill="white"/>
<defs>
<linearGradient id="paint0_linear_121_254" x1="-9.5" y1="36.0002" x2="64.5" y2="15.5002" gradientUnits="userSpaceOnUse">
<stop offset="0.307692" stop-color="#AD3032"/>
<stop offset="1" stop-color="#3A1C1C" stop-opacity="0.65"/>
</linearGradient>
</defs>
</svg>
