<svg width="218" height="127" viewBox="0 0 218 127" fill="none" xmlns="http://www.w3.org/2000/svg">
<mask id="path-1-outside-1_2315_283" maskUnits="userSpaceOnUse" x="-0.354004" y="15" width="218" height="65" fill="black">
<rect fill="white" x="-0.354004" y="15" width="218" height="65"/>
<path d="M27.556 75.78C24.28 75.78 21.29 75.728 18.586 75.624C15.882 75.572 13.334 75.494 10.942 75.39C8.602 75.286 6.288 75.156 4 75V20.478C6.704 20.27 9.252 20.114 11.644 20.01C14.036 19.854 16.454 19.75 18.898 19.698C21.342 19.646 23.968 19.62 26.776 19.62C33.588 19.62 39.048 20.608 43.156 22.584C47.316 24.508 50.332 27.55 52.204 31.71C54.076 35.818 55.012 41.148 55.012 47.7C55.012 54.148 53.998 59.452 51.97 63.612C49.994 67.72 46.978 70.788 42.922 72.816C38.866 74.792 33.744 75.78 27.556 75.78ZM29.272 61.662C30.78 61.662 32.054 61.22 33.094 60.336C34.134 59.4 34.94 57.918 35.512 55.89C36.084 53.81 36.37 51.106 36.37 47.778C36.37 44.138 36.084 41.33 35.512 39.354C34.992 37.326 34.186 35.896 33.094 35.064C32.002 34.232 30.624 33.816 28.96 33.816C27.972 33.816 27.062 33.842 26.23 33.894C25.398 33.894 24.644 33.92 23.968 33.972C23.292 33.972 22.694 33.998 22.174 34.05V61.428C22.798 61.428 23.37 61.454 23.89 61.506C24.41 61.506 24.93 61.532 25.45 61.584C25.97 61.584 26.516 61.61 27.088 61.662C27.712 61.662 28.44 61.662 29.272 61.662ZM57.4727 75L73.7747 20.4H96.0827L112.619 75H92.7287L91.0907 67.902H78.0647L76.5047 75H57.4727ZM81.2627 53.082H87.8927L84.6167 33.504L81.2627 53.082ZM160.877 36.39H145.355V75H127.181V36.39H111.659V20.4H160.877V36.39ZM168.903 75V20.4H211.491V35.376H186.843V40.992H209.385V54.486H186.843V60.258H212.895V75H168.903Z"/>
</mask>
<path d="M27.556 75.78C24.28 75.78 21.29 75.728 18.586 75.624C15.882 75.572 13.334 75.494 10.942 75.39C8.602 75.286 6.288 75.156 4 75V20.478C6.704 20.27 9.252 20.114 11.644 20.01C14.036 19.854 16.454 19.75 18.898 19.698C21.342 19.646 23.968 19.62 26.776 19.62C33.588 19.62 39.048 20.608 43.156 22.584C47.316 24.508 50.332 27.55 52.204 31.71C54.076 35.818 55.012 41.148 55.012 47.7C55.012 54.148 53.998 59.452 51.97 63.612C49.994 67.72 46.978 70.788 42.922 72.816C38.866 74.792 33.744 75.78 27.556 75.78ZM29.272 61.662C30.78 61.662 32.054 61.22 33.094 60.336C34.134 59.4 34.94 57.918 35.512 55.89C36.084 53.81 36.37 51.106 36.37 47.778C36.37 44.138 36.084 41.33 35.512 39.354C34.992 37.326 34.186 35.896 33.094 35.064C32.002 34.232 30.624 33.816 28.96 33.816C27.972 33.816 27.062 33.842 26.23 33.894C25.398 33.894 24.644 33.92 23.968 33.972C23.292 33.972 22.694 33.998 22.174 34.05V61.428C22.798 61.428 23.37 61.454 23.89 61.506C24.41 61.506 24.93 61.532 25.45 61.584C25.97 61.584 26.516 61.61 27.088 61.662C27.712 61.662 28.44 61.662 29.272 61.662ZM57.4727 75L73.7747 20.4H96.0827L112.619 75H92.7287L91.0907 67.902H78.0647L76.5047 75H57.4727ZM81.2627 53.082H87.8927L84.6167 33.504L81.2627 53.082ZM160.877 36.39H145.355V75H127.181V36.39H111.659V20.4H160.877V36.39ZM168.903 75V20.4H211.491V35.376H186.843V40.992H209.385V54.486H186.843V60.258H212.895V75H168.903Z" fill="#FF0000"/>
<path d="M18.586 75.624L18.7397 71.627L18.7013 71.6255L18.6629 71.6247L18.586 75.624ZM10.942 75.39L10.7644 79.3861L10.7682 79.3862L10.942 75.39ZM4 75H-3.79235e-06V78.7366L3.7279 78.9907L4 75ZM4 20.478L3.69321 16.4898L-3.79235e-06 16.7739V20.478H4ZM11.644 20.01L11.8177 24.0062L11.8611 24.0043L11.9043 24.0015L11.644 20.01ZM18.898 19.698L18.8129 15.6989L18.8129 15.6989L18.898 19.698ZM43.156 22.584L41.4221 26.1887L41.4494 26.2018L41.4769 26.2145L43.156 22.584ZM52.204 31.71L48.5563 33.3515L48.5602 33.3601L48.5641 33.3687L52.204 31.71ZM51.97 63.612L48.3745 61.8592L48.3699 61.8686L48.3653 61.8781L51.97 63.612ZM42.922 72.816L44.6739 76.412L44.6924 76.4029L44.7109 76.3937L42.922 72.816ZM33.094 60.336L35.6846 63.3838L35.7278 63.3471L35.7699 63.3092L33.094 60.336ZM35.512 55.89L39.3618 56.9758L39.3653 56.9632L39.3688 56.9506L35.512 55.89ZM35.512 39.354L31.6373 40.3475L31.6526 40.4071L31.6697 40.4662L35.512 39.354ZM33.094 35.064L35.5182 31.8823L35.5182 31.8823L33.094 35.064ZM26.23 33.894V37.894H26.3549L26.4795 37.8862L26.23 33.894ZM23.968 33.972V37.972H24.1216L24.2748 37.9602L23.968 33.972ZM22.174 34.05L21.776 30.0698L18.174 30.43V34.05H22.174ZM22.174 61.428H18.174V65.428H22.174V61.428ZM23.89 61.506L23.492 65.4861L23.6905 65.506H23.89V61.506ZM25.45 61.584L25.052 65.5641L25.2505 65.584H25.45V61.584ZM27.088 61.662L26.7259 65.6456L26.9066 65.662H27.088V61.662ZM27.556 75.78V71.78C24.321 71.78 21.3832 71.7286 18.7397 71.627L18.586 75.624L18.4323 79.621C21.1968 79.7274 24.239 79.78 27.556 79.78V75.78ZM18.586 75.624L18.6629 71.6247C15.9871 71.5733 13.4717 71.4962 11.1157 71.3938L10.942 75.39L10.7682 79.3862C13.1963 79.4918 15.7768 79.5707 18.5091 79.6233L18.586 75.624ZM10.942 75.39L11.1196 71.3939C8.81045 71.2913 6.52795 71.1631 4.27209 71.0093L4 75L3.7279 78.9907C6.04804 79.1489 8.39355 79.2807 10.7644 79.3861L10.942 75.39ZM4 75H8V20.478H4H-3.79235e-06V75H4ZM4 20.478L4.30678 24.4662C6.97217 24.2612 9.47549 24.1081 11.8177 24.0062L11.644 20.01L11.4702 16.0138C9.02851 16.1199 6.43583 16.2788 3.69321 16.4898L4 20.478ZM11.644 20.01L11.9043 24.0015C14.2368 23.8494 16.5964 23.7479 18.9831 23.6971L18.898 19.698L18.8129 15.6989C16.3116 15.7521 13.8352 15.8586 11.3837 16.0185L11.644 20.01ZM18.898 19.698L18.9831 23.6971C21.3949 23.6458 23.9923 23.62 26.776 23.62V19.62V15.62C23.9437 15.62 21.2891 15.6462 18.8129 15.6989L18.898 19.698ZM26.776 19.62V23.62C33.2591 23.62 38.0556 24.5693 41.4221 26.1887L43.156 22.584L44.8899 18.9793C40.0404 16.6467 33.9169 15.62 26.776 15.62V19.62ZM43.156 22.584L41.4769 26.2145C44.7672 27.7363 47.0817 30.0744 48.5563 33.3515L52.204 31.71L55.8517 30.0685C53.5823 25.0255 49.8648 21.2797 44.8351 18.9535L43.156 22.584ZM52.204 31.71L48.5641 33.3687C50.1167 36.7758 51.012 41.4822 51.012 47.7H55.012H59.012C59.012 40.8138 58.0353 34.8602 55.8439 30.0513L52.204 31.71ZM55.012 47.7H51.012C51.012 53.765 50.0529 58.4163 48.3745 61.8592L51.97 63.612L55.5655 65.3648C57.9431 60.4877 59.012 54.531 59.012 47.7H55.012ZM51.97 63.612L48.3653 61.8781C46.7714 65.1918 44.3918 67.609 41.1331 69.2383L42.922 72.816L44.7109 76.3937C49.5642 73.967 53.2166 70.2482 55.5747 65.3459L51.97 63.612ZM42.922 72.816L41.1701 69.22C37.8236 70.8504 33.3501 71.78 27.556 71.78V75.78V79.78C34.1379 79.78 39.9084 78.7336 44.6739 76.412L42.922 72.816ZM29.272 61.662V65.662C31.6226 65.662 33.8441 64.9482 35.6846 63.3838L33.094 60.336L30.5034 57.2882C30.2639 57.4918 29.9374 57.662 29.272 57.662V61.662ZM33.094 60.336L35.7699 63.3092C37.5879 61.6729 38.6814 59.3883 39.3618 56.9758L35.512 55.89L31.6622 54.8042C31.1986 56.4477 30.6801 57.1271 30.4181 57.3628L33.094 60.336ZM35.512 55.89L39.3688 56.9506C40.0726 54.3916 40.37 51.2928 40.37 47.778H36.37H32.37C32.37 50.9192 32.0954 53.2284 31.6552 54.8294L35.512 55.89ZM36.37 47.778H40.37C40.37 44.0032 40.0817 40.7547 39.3543 38.2418L35.512 39.354L31.6697 40.4662C32.0863 41.9053 32.37 44.2728 32.37 47.778H36.37ZM35.512 39.354L39.3867 38.3605C38.7546 35.8956 37.616 33.4807 35.5182 31.8823L33.094 35.064L30.6698 38.2457C30.756 38.3113 31.2294 38.7564 31.6373 40.3475L35.512 39.354ZM33.094 35.064L35.5182 31.8823C33.5916 30.4144 31.309 29.816 28.96 29.816V33.816V37.816C29.9389 37.816 30.4124 38.0496 30.6698 38.2457L33.094 35.064ZM28.96 33.816V29.816C27.9035 29.816 26.909 29.8438 25.9805 29.9018L26.23 33.894L26.4795 37.8862C27.2149 37.8402 28.0405 37.816 28.96 37.816V33.816ZM26.23 33.894V29.894C25.3176 29.894 24.4591 29.9224 23.6612 29.9838L23.968 33.972L24.2748 37.9602C24.8289 37.9176 25.4784 37.894 26.23 37.894V33.894ZM23.968 33.972V29.972C23.1953 29.972 22.46 30.0014 21.776 30.0698L22.174 34.05L22.572 38.0301C22.928 37.9945 23.3886 37.972 23.968 37.972V33.972ZM22.174 34.05H18.174V61.428H22.174H26.174V34.05H22.174ZM22.174 61.428V65.428C22.6897 65.428 23.1266 65.4496 23.492 65.4861L23.89 61.506L24.288 57.5259C23.6134 57.4584 22.9063 57.428 22.174 57.428V61.428ZM23.89 61.506V65.506C24.2764 65.506 24.6636 65.5253 25.052 65.5641L25.45 61.584L25.848 57.6039C25.1964 57.5387 24.5436 57.506 23.89 57.506V61.506ZM25.45 61.584V65.584C25.8374 65.584 26.262 65.6034 26.7259 65.6456L27.088 61.662L27.4501 57.6784C26.77 57.6166 26.1026 57.584 25.45 57.584V61.584ZM27.088 61.662V65.662C27.0892 65.662 27.0904 65.662 27.0917 65.662C27.0929 65.662 27.0941 65.662 27.0953 65.662C27.0965 65.662 27.0978 65.662 27.099 65.662C27.1002 65.662 27.1014 65.662 27.1026 65.662C27.1039 65.662 27.1051 65.662 27.1063 65.662C27.1075 65.662 27.1088 65.662 27.11 65.662C27.1112 65.662 27.1124 65.662 27.1136 65.662C27.1149 65.662 27.1161 65.662 27.1173 65.662C27.1185 65.662 27.1198 65.662 27.121 65.662C27.1222 65.662 27.1235 65.662 27.1247 65.662C27.1259 65.662 27.1271 65.662 27.1284 65.662C27.1296 65.662 27.1308 65.662 27.132 65.662C27.1333 65.662 27.1345 65.662 27.1357 65.662C27.137 65.662 27.1382 65.662 27.1394 65.662C27.1406 65.662 27.1419 65.662 27.1431 65.662C27.1443 65.662 27.1456 65.662 27.1468 65.662C27.148 65.662 27.1493 65.662 27.1505 65.662C27.1517 65.662 27.153 65.662 27.1542 65.662C27.1554 65.662 27.1567 65.662 27.1579 65.662C27.1591 65.662 27.1604 65.662 27.1616 65.662C27.1628 65.662 27.1641 65.662 27.1653 65.662C27.1665 65.662 27.1678 65.662 27.169 65.662C27.1702 65.662 27.1715 65.662 27.1727 65.662C27.174 65.662 27.1752 65.662 27.1764 65.662C27.1777 65.662 27.1789 65.662 27.1801 65.662C27.1814 65.662 27.1826 65.662 27.1839 65.662C27.1851 65.662 27.1863 65.662 27.1876 65.662C27.1888 65.662 27.1901 65.662 27.1913 65.662C27.1925 65.662 27.1938 65.662 27.195 65.662C27.1963 65.662 27.1975 65.662 27.1988 65.662C27.2 65.662 27.2012 65.662 27.2025 65.662C27.2037 65.662 27.205 65.662 27.2062 65.662C27.2075 65.662 27.2087 65.662 27.2099 65.662C27.2112 65.662 27.2124 65.662 27.2137 65.662C27.2149 65.662 27.2162 65.662 27.2174 65.662C27.2187 65.662 27.2199 65.662 27.2212 65.662C27.2224 65.662 27.2237 65.662 27.2249 65.662C27.2262 65.662 27.2274 65.662 27.2287 65.662C27.2299 65.662 27.2312 65.662 27.2324 65.662C27.2337 65.662 27.2349 65.662 27.2362 65.662C27.2374 65.662 27.2387 65.662 27.2399 65.662C27.2412 65.662 27.2424 65.662 27.2437 65.662C27.2449 65.662 27.2462 65.662 27.2474 65.662C27.2487 65.662 27.2499 65.662 27.2512 65.662C27.2524 65.662 27.2537 65.662 27.2549 65.662C27.2562 65.662 27.2574 65.662 27.2587 65.662C27.26 65.662 27.2612 65.662 27.2625 65.662C27.2637 65.662 27.265 65.662 27.2662 65.662C27.2675 65.662 27.2688 65.662 27.27 65.662C27.2713 65.662 27.2725 65.662 27.2738 65.662C27.275 65.662 27.2763 65.662 27.2776 65.662C27.2788 65.662 27.2801 65.662 27.2813 65.662C27.2826 65.662 27.2839 65.662 27.2851 65.662C27.2864 65.662 27.2876 65.662 27.2889 65.662C27.2902 65.662 27.2914 65.662 27.2927 65.662C27.294 65.662 27.2952 65.662 27.2965 65.662C27.2977 65.662 27.299 65.662 27.3003 65.662C27.3015 65.662 27.3028 65.662 27.3041 65.662C27.3053 65.662 27.3066 65.662 27.3079 65.662C27.3091 65.662 27.3104 65.662 27.3117 65.662C27.3129 65.662 27.3142 65.662 27.3155 65.662C27.3167 65.662 27.318 65.662 27.3193 65.662C27.3205 65.662 27.3218 65.662 27.3231 65.662C27.3243 65.662 27.3256 65.662 27.3269 65.662C27.3281 65.662 27.3294 65.662 27.3307 65.662C27.332 65.662 27.3332 65.662 27.3345 65.662C27.3358 65.662 27.337 65.662 27.3383 65.662C27.3396 65.662 27.3409 65.662 27.3421 65.662C27.3434 65.662 27.3447 65.662 27.3459 65.662C27.3472 65.662 27.3485 65.662 27.3498 65.662C27.351 65.662 27.3523 65.662 27.3536 65.662C27.3549 65.662 27.3561 65.662 27.3574 65.662C27.3587 65.662 27.36 65.662 27.3612 65.662C27.3625 65.662 27.3638 65.662 27.3651 65.662C27.3664 65.662 27.3676 65.662 27.3689 65.662C27.3702 65.662 27.3715 65.662 27.3727 65.662C27.374 65.662 27.3753 65.662 27.3766 65.662C27.3779 65.662 27.3791 65.662 27.3804 65.662C27.3817 65.662 27.383 65.662 27.3843 65.662C27.3856 65.662 27.3868 65.662 27.3881 65.662C27.3894 65.662 27.3907 65.662 27.392 65.662C27.3932 65.662 27.3945 65.662 27.3958 65.662C27.3971 65.662 27.3984 65.662 27.3997 65.662C27.4009 65.662 27.4022 65.662 27.4035 65.662C27.4048 65.662 27.4061 65.662 27.4074 65.662C27.4087 65.662 27.41 65.662 27.4112 65.662C27.4125 65.662 27.4138 65.662 27.4151 65.662C27.4164 65.662 27.4177 65.662 27.419 65.662C27.4203 65.662 27.4215 65.662 27.4228 65.662C27.4241 65.662 27.4254 65.662 27.4267 65.662C27.428 65.662 27.4293 65.662 27.4306 65.662C27.4319 65.662 27.4332 65.662 27.4344 65.662C27.4357 65.662 27.437 65.662 27.4383 65.662C27.4396 65.662 27.4409 65.662 27.4422 65.662C27.4435 65.662 27.4448 65.662 27.4461 65.662C27.4474 65.662 27.4487 65.662 27.45 65.662C27.4513 65.662 27.4526 65.662 27.4539 65.662C27.4551 65.662 27.4564 65.662 27.4577 65.662C27.459 65.662 27.4603 65.662 27.4616 65.662C27.4629 65.662 27.4642 65.662 27.4655 65.662C27.4668 65.662 27.4681 65.662 27.4694 65.662C27.4707 65.662 27.472 65.662 27.4733 65.662C27.4746 65.662 27.4759 65.662 27.4772 65.662C27.4785 65.662 27.4798 65.662 27.4811 65.662C27.4824 65.662 27.4837 65.662 27.485 65.662C27.4863 65.662 27.4876 65.662 27.4889 65.662C27.4902 65.662 27.4915 65.662 27.4928 65.662C27.4941 65.662 27.4955 65.662 27.4968 65.662C27.4981 65.662 27.4994 65.662 27.5007 65.662C27.502 65.662 27.5033 65.662 27.5046 65.662C27.5059 65.662 27.5072 65.662 27.5085 65.662C27.5098 65.662 27.5111 65.662 27.5124 65.662C27.5137 65.662 27.515 65.662 27.5164 65.662C27.5177 65.662 27.519 65.662 27.5203 65.662C27.5216 65.662 27.5229 65.662 27.5242 65.662C27.5255 65.662 27.5268 65.662 27.5281 65.662C27.5294 65.662 27.5308 65.662 27.5321 65.662C27.5334 65.662 27.5347 65.662 27.536 65.662C27.5373 65.662 27.5386 65.662 27.5399 65.662C27.5413 65.662 27.5426 65.662 27.5439 65.662C27.5452 65.662 27.5465 65.662 27.5478 65.662C27.5491 65.662 27.5505 65.662 27.5518 65.662C27.5531 65.662 27.5544 65.662 27.5557 65.662C27.557 65.662 27.5584 65.662 27.5597 65.662C27.561 65.662 27.5623 65.662 27.5636 65.662C27.5649 65.662 27.5663 65.662 27.5676 65.662C27.5689 65.662 27.5702 65.662 27.5715 65.662C27.5729 65.662 27.5742 65.662 27.5755 65.662C27.5768 65.662 27.5781 65.662 27.5795 65.662C27.5808 65.662 27.5821 65.662 27.5834 65.662C27.5847 65.662 27.5861 65.662 27.5874 65.662C27.5887 65.662 27.59 65.662 27.5914 65.662C27.5927 65.662 27.594 65.662 27.5953 65.662C27.5967 65.662 27.598 65.662 27.5993 65.662C27.6006 65.662 27.602 65.662 27.6033 65.662C27.6046 65.662 27.6059 65.662 27.6073 65.662C27.6086 65.662 27.6099 65.662 27.6112 65.662C27.6126 65.662 27.6139 65.662 27.6152 65.662C27.6166 65.662 27.6179 65.662 27.6192 65.662C27.6205 65.662 27.6219 65.662 27.6232 65.662C27.6245 65.662 27.6259 65.662 27.6272 65.662C27.6285 65.662 27.6299 65.662 27.6312 65.662C27.6325 65.662 27.6338 65.662 27.6352 65.662C27.6365 65.662 27.6378 65.662 27.6392 65.662C27.6405 65.662 27.6418 65.662 27.6432 65.662C27.6445 65.662 27.6458 65.662 27.6472 65.662C27.6485 65.662 27.6498 65.662 27.6512 65.662C27.6525 65.662 27.6539 65.662 27.6552 65.662C27.6565 65.662 27.6579 65.662 27.6592 65.662C27.6605 65.662 27.6619 65.662 27.6632 65.662C27.6646 65.662 27.6659 65.662 27.6672 65.662C27.6686 65.662 27.6699 65.662 27.6712 65.662C27.6726 65.662 27.6739 65.662 27.6753 65.662C27.6766 65.662 27.6779 65.662 27.6793 65.662C27.6806 65.662 27.682 65.662 27.6833 65.662C27.6847 65.662 27.686 65.662 27.6873 65.662C27.6887 65.662 27.69 65.662 27.6914 65.662C27.6927 65.662 27.6941 65.662 27.6954 65.662C27.6967 65.662 27.6981 65.662 27.6994 65.662C27.7008 65.662 27.7021 65.662 27.7035 65.662C27.7048 65.662 27.7062 65.662 27.7075 65.662C27.7089 65.662 27.7102 65.662 27.7115 65.662C27.7129 65.662 27.7142 65.662 27.7156 65.662C27.7169 65.662 27.7183 65.662 27.7196 65.662C27.721 65.662 27.7223 65.662 27.7237 65.662C27.725 65.662 27.7264 65.662 27.7277 65.662C27.7291 65.662 27.7304 65.662 27.7318 65.662C27.7331 65.662 27.7345 65.662 27.7358 65.662C27.7372 65.662 27.7385 65.662 27.7399 65.662C27.7412 65.662 27.7426 65.662 27.744 65.662C27.7453 65.662 27.7467 65.662 27.748 65.662C27.7494 65.662 27.7507 65.662 27.7521 65.662C27.7534 65.662 27.7548 65.662 27.7561 65.662C27.7575 65.662 27.7589 65.662 27.7602 65.662C27.7616 65.662 27.7629 65.662 27.7643 65.662C27.7656 65.662 27.767 65.662 27.7684 65.662C27.7697 65.662 27.7711 65.662 27.7724 65.662C27.7738 65.662 27.7752 65.662 27.7765 65.662C27.7779 65.662 27.7792 65.662 27.7806 65.662C27.782 65.662 27.7833 65.662 27.7847 65.662C27.786 65.662 27.7874 65.662 27.7888 65.662C27.7901 65.662 27.7915 65.662 27.7929 65.662C27.7942 65.662 27.7956 65.662 27.7969 65.662C27.7983 65.662 27.7997 65.662 27.801 65.662C27.8024 65.662 27.8038 65.662 27.8051 65.662C27.8065 65.662 27.8079 65.662 27.8092 65.662C27.8106 65.662 27.812 65.662 27.8133 65.662C27.8147 65.662 27.8161 65.662 27.8174 65.662C27.8188 65.662 27.8202 65.662 27.8215 65.662C27.8229 65.662 27.8243 65.662 27.8257 65.662C27.827 65.662 27.8284 65.662 27.8298 65.662C27.8311 65.662 27.8325 65.662 27.8339 65.662C27.8352 65.662 27.8366 65.662 27.838 65.662C27.8394 65.662 27.8407 65.662 27.8421 65.662C27.8435 65.662 27.8448 65.662 27.8462 65.662C27.8476 65.662 27.849 65.662 27.8503 65.662C27.8517 65.662 27.8531 65.662 27.8545 65.662C27.8558 65.662 27.8572 65.662 27.8586 65.662C27.86 65.662 27.8613 65.662 27.8627 65.662C27.8641 65.662 27.8655 65.662 27.8669 65.662C27.8682 65.662 27.8696 65.662 27.871 65.662C27.8724 65.662 27.8737 65.662 27.8751 65.662C27.8765 65.662 27.8779 65.662 27.8793 65.662C27.8806 65.662 27.882 65.662 27.8834 65.662C27.8848 65.662 27.8862 65.662 27.8875 65.662C27.8889 65.662 27.8903 65.662 27.8917 65.662C27.8931 65.662 27.8945 65.662 27.8958 65.662C27.8972 65.662 27.8986 65.662 27.9 65.662C27.9014 65.662 27.9028 65.662 27.9041 65.662C27.9055 65.662 27.9069 65.662 27.9083 65.662C27.9097 65.662 27.9111 65.662 27.9125 65.662C27.9138 65.662 27.9152 65.662 27.9166 65.662C27.918 65.662 27.9194 65.662 27.9208 65.662C27.9222 65.662 27.9236 65.662 27.9249 65.662C27.9263 65.662 27.9277 65.662 27.9291 65.662C27.9305 65.662 27.9319 65.662 27.9333 65.662C27.9347 65.662 27.9361 65.662 27.9374 65.662C27.9388 65.662 27.9402 65.662 27.9416 65.662C27.943 65.662 27.9444 65.662 27.9458 65.662C27.9472 65.662 27.9486 65.662 27.95 65.662C27.9514 65.662 27.9528 65.662 27.9542 65.662C27.9556 65.662 27.9569 65.662 27.9583 65.662C27.9597 65.662 27.9611 65.662 27.9625 65.662C27.9639 65.662 27.9653 65.662 27.9667 65.662C27.9681 65.662 27.9695 65.662 27.9709 65.662C27.9723 65.662 27.9737 65.662 27.9751 65.662C27.9765 65.662 27.9779 65.662 27.9793 65.662C27.9807 65.662 27.9821 65.662 27.9835 65.662C27.9849 65.662 27.9863 65.662 27.9877 65.662C27.9891 65.662 27.9905 65.662 27.9919 65.662C27.9933 65.662 27.9947 65.662 27.9961 65.662C27.9975 65.662 27.9989 65.662 28.0003 65.662C28.0017 65.662 28.0031 65.662 28.0045 65.662C28.0059 65.662 28.0073 65.662 28.0087 65.662C28.0101 65.662 28.0115 65.662 28.0129 65.662C28.0143 65.662 28.0158 65.662 28.0172 65.662C28.0186 65.662 28.02 65.662 28.0214 65.662C28.0228 65.662 28.0242 65.662 28.0256 65.662C28.027 65.662 28.0284 65.662 28.0298 65.662C28.0312 65.662 28.0326 65.662 28.0341 65.662C28.0355 65.662 28.0369 65.662 28.0383 65.662C28.0397 65.662 28.0411 65.662 28.0425 65.662C28.0439 65.662 28.0453 65.662 28.0467 65.662C28.0482 65.662 28.0496 65.662 28.051 65.662C28.0524 65.662 28.0538 65.662 28.0552 65.662C28.0566 65.662 28.058 65.662 28.0595 65.662C28.0609 65.662 28.0623 65.662 28.0637 65.662C28.0651 65.662 28.0665 65.662 28.0679 65.662C28.0694 65.662 28.0708 65.662 28.0722 65.662C28.0736 65.662 28.075 65.662 28.0764 65.662C28.0779 65.662 28.0793 65.662 28.0807 65.662C28.0821 65.662 28.0835 65.662 28.085 65.662C28.0864 65.662 28.0878 65.662 28.0892 65.662C28.0906 65.662 28.0921 65.662 28.0935 65.662C28.0949 65.662 28.0963 65.662 28.0977 65.662C28.0992 65.662 28.1006 65.662 28.102 65.662C28.1034 65.662 28.1048 65.662 28.1063 65.662C28.1077 65.662 28.1091 65.662 28.1105 65.662C28.112 65.662 28.1134 65.662 28.1148 65.662C28.1162 65.662 28.1177 65.662 28.1191 65.662C28.1205 65.662 28.1219 65.662 28.1234 65.662C28.1248 65.662 28.1262 65.662 28.1276 65.662C28.1291 65.662 28.1305 65.662 28.1319 65.662C28.1333 65.662 28.1348 65.662 28.1362 65.662C28.1376 65.662 28.1391 65.662 28.1405 65.662C28.1419 65.662 28.1433 65.662 28.1448 65.662C28.1462 65.662 28.1476 65.662 28.1491 65.662C28.1505 65.662 28.1519 65.662 28.1534 65.662C28.1548 65.662 28.1562 65.662 28.1577 65.662C28.1591 65.662 28.1605 65.662 28.1619 65.662C28.1634 65.662 28.1648 65.662 28.1662 65.662C28.1677 65.662 28.1691 65.662 28.1706 65.662C28.172 65.662 28.1734 65.662 28.1749 65.662C28.1763 65.662 28.1777 65.662 28.1792 65.662C28.1806 65.662 28.182 65.662 28.1835 65.662C28.1849 65.662 28.1863 65.662 28.1878 65.662C28.1892 65.662 28.1907 65.662 28.1921 65.662C28.1935 65.662 28.195 65.662 28.1964 65.662C28.1979 65.662 28.1993 65.662 28.2007 65.662C28.2022 65.662 28.2036 65.662 28.2051 65.662C28.2065 65.662 28.2079 65.662 28.2094 65.662C28.2108 65.662 28.2123 65.662 28.2137 65.662C28.2152 65.662 28.2166 65.662 28.218 65.662C28.2195 65.662 28.2209 65.662 28.2224 65.662C28.2238 65.662 28.2253 65.662 28.2267 65.662C28.2281 65.662 28.2296 65.662 28.231 65.662C28.2325 65.662 28.2339 65.662 28.2354 65.662C28.2368 65.662 28.2383 65.662 28.2397 65.662C28.2412 65.662 28.2426 65.662 28.2441 65.662C28.2455 65.662 28.247 65.662 28.2484 65.662C28.2499 65.662 28.2513 65.662 28.2528 65.662C28.2542 65.662 28.2557 65.662 28.2571 65.662C28.2586 65.662 28.26 65.662 28.2615 65.662C28.2629 65.662 28.2644 65.662 28.2658 65.662C28.2673 65.662 28.2687 65.662 28.2702 65.662C28.2716 65.662 28.2731 65.662 28.2745 65.662C28.276 65.662 28.2774 65.662 28.2789 65.662C28.2803 65.662 28.2818 65.662 28.2833 65.662C28.2847 65.662 28.2862 65.662 28.2876 65.662C28.2891 65.662 28.2905 65.662 28.292 65.662C28.2934 65.662 28.2949 65.662 28.2964 65.662C28.2978 65.662 28.2993 65.662 28.3007 65.662C28.3022 65.662 28.3037 65.662 28.3051 65.662C28.3066 65.662 28.308 65.662 28.3095 65.662C28.3109 65.662 28.3124 65.662 28.3139 65.662C28.3153 65.662 28.3168 65.662 28.3183 65.662C28.3197 65.662 28.3212 65.662 28.3226 65.662C28.3241 65.662 28.3256 65.662 28.327 65.662C28.3285 65.662 28.33 65.662 28.3314 65.662C28.3329 65.662 28.3343 65.662 28.3358 65.662C28.3373 65.662 28.3387 65.662 28.3402 65.662C28.3417 65.662 28.3431 65.662 28.3446 65.662C28.3461 65.662 28.3475 65.662 28.349 65.662C28.3505 65.662 28.3519 65.662 28.3534 65.662C28.3549 65.662 28.3563 65.662 28.3578 65.662C28.3593 65.662 28.3607 65.662 28.3622 65.662C28.3637 65.662 28.3652 65.662 28.3666 65.662C28.3681 65.662 28.3696 65.662 28.371 65.662C28.3725 65.662 28.374 65.662 28.3755 65.662C28.3769 65.662 28.3784 65.662 28.3799 65.662C28.3813 65.662 28.3828 65.662 28.3843 65.662C28.3858 65.662 28.3872 65.662 28.3887 65.662C28.3902 65.662 28.3917 65.662 28.3931 65.662C28.3946 65.662 28.3961 65.662 28.3976 65.662C28.399 65.662 28.4005 65.662 28.402 65.662C28.4035 65.662 28.4049 65.662 28.4064 65.662C28.4079 65.662 28.4094 65.662 28.4109 65.662C28.4123 65.662 28.4138 65.662 28.4153 65.662C28.4168 65.662 28.4183 65.662 28.4197 65.662C28.4212 65.662 28.4227 65.662 28.4242 65.662C28.4257 65.662 28.4271 65.662 28.4286 65.662C28.4301 65.662 28.4316 65.662 28.4331 65.662C28.4345 65.662 28.436 65.662 28.4375 65.662C28.439 65.662 28.4405 65.662 28.442 65.662C28.4434 65.662 28.4449 65.662 28.4464 65.662C28.4479 65.662 28.4494 65.662 28.4509 65.662C28.4523 65.662 28.4538 65.662 28.4553 65.662C28.4568 65.662 28.4583 65.662 28.4598 65.662C28.4613 65.662 28.4628 65.662 28.4642 65.662C28.4657 65.662 28.4672 65.662 28.4687 65.662C28.4702 65.662 28.4717 65.662 28.4732 65.662C28.4747 65.662 28.4762 65.662 28.4776 65.662C28.4791 65.662 28.4806 65.662 28.4821 65.662C28.4836 65.662 28.4851 65.662 28.4866 65.662C28.4881 65.662 28.4896 65.662 28.4911 65.662C28.4926 65.662 28.4941 65.662 28.4955 65.662C28.497 65.662 28.4985 65.662 28.5 65.662C28.5015 65.662 28.503 65.662 28.5045 65.662C28.506 65.662 28.5075 65.662 28.509 65.662C28.5105 65.662 28.512 65.662 28.5135 65.662C28.515 65.662 28.5165 65.662 28.518 65.662C28.5195 65.662 28.521 65.662 28.5225 65.662C28.524 65.662 28.5255 65.662 28.527 65.662C28.5285 65.662 28.53 65.662 28.5315 65.662C28.533 65.662 28.5345 65.662 28.536 65.662C28.5375 65.662 28.539 65.662 28.5405 65.662C28.542 65.662 28.5435 65.662 28.545 65.662C28.5465 65.662 28.548 65.662 28.5495 65.662C28.551 65.662 28.5525 65.662 28.554 65.662C28.5555 65.662 28.557 65.662 28.5585 65.662C28.56 65.662 28.5615 65.662 28.563 65.662C28.5645 65.662 28.566 65.662 28.5675 65.662C28.569 65.662 28.5705 65.662 28.572 65.662C28.5736 65.662 28.5751 65.662 28.5766 65.662C28.5781 65.662 28.5796 65.662 28.5811 65.662C28.5826 65.662 28.5841 65.662 28.5856 65.662C28.5871 65.662 28.5886 65.662 28.5901 65.662C28.5917 65.662 28.5932 65.662 28.5947 65.662C28.5962 65.662 28.5977 65.662 28.5992 65.662C28.6007 65.662 28.6022 65.662 28.6037 65.662C28.6053 65.662 28.6068 65.662 28.6083 65.662C28.6098 65.662 28.6113 65.662 28.6128 65.662C28.6143 65.662 28.6159 65.662 28.6174 65.662C28.6189 65.662 28.6204 65.662 28.6219 65.662C28.6234 65.662 28.6249 65.662 28.6265 65.662C28.628 65.662 28.6295 65.662 28.631 65.662C28.6325 65.662 28.634 65.662 28.6356 65.662C28.6371 65.662 28.6386 65.662 28.6401 65.662C28.6416 65.662 28.6432 65.662 28.6447 65.662C28.6462 65.662 28.6477 65.662 28.6492 65.662C28.6508 65.662 28.6523 65.662 28.6538 65.662C28.6553 65.662 28.6568 65.662 28.6584 65.662C28.6599 65.662 28.6614 65.662 28.6629 65.662C28.6645 65.662 28.666 65.662 28.6675 65.662C28.669 65.662 28.6705 65.662 28.6721 65.662C28.6736 65.662 28.6751 65.662 28.6766 65.662C28.6782 65.662 28.6797 65.662 28.6812 65.662C28.6827 65.662 28.6843 65.662 28.6858 65.662C28.6873 65.662 28.6889 65.662 28.6904 65.662C28.6919 65.662 28.6934 65.662 28.695 65.662C28.6965 65.662 28.698 65.662 28.6995 65.662C28.7011 65.662 28.7026 65.662 28.7041 65.662C28.7057 65.662 28.7072 65.662 28.7087 65.662C28.7103 65.662 28.7118 65.662 28.7133 65.662C28.7149 65.662 28.7164 65.662 28.7179 65.662C28.7194 65.662 28.721 65.662 28.7225 65.662C28.724 65.662 28.7256 65.662 28.7271 65.662C28.7286 65.662 28.7302 65.662 28.7317 65.662C28.7332 65.662 28.7348 65.662 28.7363 65.662C28.7379 65.662 28.7394 65.662 28.7409 65.662C28.7425 65.662 28.744 65.662 28.7455 65.662C28.7471 65.662 28.7486 65.662 28.7501 65.662C28.7517 65.662 28.7532 65.662 28.7548 65.662C28.7563 65.662 28.7578 65.662 28.7594 65.662C28.7609 65.662 28.7625 65.662 28.764 65.662C28.7655 65.662 28.7671 65.662 28.7686 65.662C28.7702 65.662 28.7717 65.662 28.7732 65.662C28.7748 65.662 28.7763 65.662 28.7779 65.662C28.7794 65.662 28.781 65.662 28.7825 65.662C28.784 65.662 28.7856 65.662 28.7871 65.662C28.7887 65.662 28.7902 65.662 28.7918 65.662C28.7933 65.662 28.7949 65.662 28.7964 65.662C28.7979 65.662 28.7995 65.662 28.801 65.662C28.8026 65.662 28.8041 65.662 28.8057 65.662C28.8072 65.662 28.8088 65.662 28.8103 65.662C28.8119 65.662 28.8134 65.662 28.815 65.662C28.8165 65.662 28.8181 65.662 28.8196 65.662C28.8212 65.662 28.8227 65.662 28.8243 65.662C28.8258 65.662 28.8274 65.662 28.8289 65.662C28.8305 65.662 28.832 65.662 28.8336 65.662C28.8351 65.662 28.8367 65.662 28.8382 65.662C28.8398 65.662 28.8413 65.662 28.8429 65.662C28.8444 65.662 28.846 65.662 28.8475 65.662C28.8491 65.662 28.8507 65.662 28.8522 65.662C28.8538 65.662 28.8553 65.662 28.8569 65.662C28.8584 65.662 28.86 65.662 28.8615 65.662C28.8631 65.662 28.8647 65.662 28.8662 65.662C28.8678 65.662 28.8693 65.662 28.8709 65.662C28.8725 65.662 28.874 65.662 28.8756 65.662C28.8771 65.662 28.8787 65.662 28.8802 65.662C28.8818 65.662 28.8834 65.662 28.8849 65.662C28.8865 65.662 28.8881 65.662 28.8896 65.662C28.8912 65.662 28.8927 65.662 28.8943 65.662C28.8959 65.662 28.8974 65.662 28.899 65.662C28.9006 65.662 28.9021 65.662 28.9037 65.662C28.9052 65.662 28.9068 65.662 28.9084 65.662C28.9099 65.662 28.9115 65.662 28.9131 65.662C28.9146 65.662 28.9162 65.662 28.9178 65.662C28.9193 65.662 28.9209 65.662 28.9225 65.662C28.924 65.662 28.9256 65.662 28.9272 65.662C28.9287 65.662 28.9303 65.662 28.9319 65.662C28.9334 65.662 28.935 65.662 28.9366 65.662C28.9381 65.662 28.9397 65.662 28.9413 65.662C28.9429 65.662 28.9444 65.662 28.946 65.662C28.9476 65.662 28.9491 65.662 28.9507 65.662C28.9523 65.662 28.9539 65.662 28.9554 65.662C28.957 65.662 28.9586 65.662 28.9602 65.662C28.9617 65.662 28.9633 65.662 28.9649 65.662C28.9664 65.662 28.968 65.662 28.9696 65.662C28.9712 65.662 28.9727 65.662 28.9743 65.662C28.9759 65.662 28.9775 65.662 28.9791 65.662C28.9806 65.662 28.9822 65.662 28.9838 65.662C28.9854 65.662 28.9869 65.662 28.9885 65.662C28.9901 65.662 28.9917 65.662 28.9933 65.662C28.9948 65.662 28.9964 65.662 28.998 65.662C28.9996 65.662 29.0011 65.662 29.0027 65.662C29.0043 65.662 29.0059 65.662 29.0075 65.662C29.0091 65.662 29.0106 65.662 29.0122 65.662C29.0138 65.662 29.0154 65.662 29.017 65.662C29.0185 65.662 29.0201 65.662 29.0217 65.662C29.0233 65.662 29.0249 65.662 29.0265 65.662C29.0281 65.662 29.0296 65.662 29.0312 65.662C29.0328 65.662 29.0344 65.662 29.036 65.662C29.0376 65.662 29.0392 65.662 29.0407 65.662C29.0423 65.662 29.0439 65.662 29.0455 65.662C29.0471 65.662 29.0487 65.662 29.0503 65.662C29.0519 65.662 29.0534 65.662 29.055 65.662C29.0566 65.662 29.0582 65.662 29.0598 65.662C29.0614 65.662 29.063 65.662 29.0646 65.662C29.0662 65.662 29.0678 65.662 29.0693 65.662C29.0709 65.662 29.0725 65.662 29.0741 65.662C29.0757 65.662 29.0773 65.662 29.0789 65.662C29.0805 65.662 29.0821 65.662 29.0837 65.662C29.0853 65.662 29.0869 65.662 29.0885 65.662C29.0901 65.662 29.0917 65.662 29.0933 65.662C29.0948 65.662 29.0964 65.662 29.098 65.662C29.0996 65.662 29.1012 65.662 29.1028 65.662C29.1044 65.662 29.106 65.662 29.1076 65.662C29.1092 65.662 29.1108 65.662 29.1124 65.662C29.114 65.662 29.1156 65.662 29.1172 65.662C29.1188 65.662 29.1204 65.662 29.122 65.662C29.1236 65.662 29.1252 65.662 29.1268 65.662C29.1284 65.662 29.13 65.662 29.1316 65.662C29.1332 65.662 29.1348 65.662 29.1364 65.662C29.138 65.662 29.1396 65.662 29.1412 65.662C29.1428 65.662 29.1444 65.662 29.1461 65.662C29.1477 65.662 29.1493 65.662 29.1509 65.662C29.1525 65.662 29.1541 65.662 29.1557 65.662C29.1573 65.662 29.1589 65.662 29.1605 65.662C29.1621 65.662 29.1637 65.662 29.1653 65.662C29.1669 65.662 29.1685 65.662 29.1701 65.662C29.1718 65.662 29.1734 65.662 29.175 65.662C29.1766 65.662 29.1782 65.662 29.1798 65.662C29.1814 65.662 29.183 65.662 29.1846 65.662C29.1862 65.662 29.1879 65.662 29.1895 65.662C29.1911 65.662 29.1927 65.662 29.1943 65.662C29.1959 65.662 29.1975 65.662 29.1991 65.662C29.2008 65.662 29.2024 65.662 29.204 65.662C29.2056 65.662 29.2072 65.662 29.2088 65.662C29.2104 65.662 29.2121 65.662 29.2137 65.662C29.2153 65.662 29.2169 65.662 29.2185 65.662C29.2201 65.662 29.2217 65.662 29.2234 65.662C29.225 65.662 29.2266 65.662 29.2282 65.662C29.2298 65.662 29.2315 65.662 29.2331 65.662C29.2347 65.662 29.2363 65.662 29.2379 65.662C29.2395 65.662 29.2412 65.662 29.2428 65.662C29.2444 65.662 29.246 65.662 29.2477 65.662C29.2493 65.662 29.2509 65.662 29.2525 65.662C29.2541 65.662 29.2558 65.662 29.2574 65.662C29.259 65.662 29.2606 65.662 29.2623 65.662C29.2639 65.662 29.2655 65.662 29.2671 65.662C29.2687 65.662 29.2704 65.662 29.272 65.662V61.662V57.662C29.2704 57.662 29.2687 57.662 29.2671 57.662C29.2655 57.662 29.2639 57.662 29.2623 57.662C29.2606 57.662 29.259 57.662 29.2574 57.662C29.2558 57.662 29.2541 57.662 29.2525 57.662C29.2509 57.662 29.2493 57.662 29.2477 57.662C29.246 57.662 29.2444 57.662 29.2428 57.662C29.2412 57.662 29.2395 57.662 29.2379 57.662C29.2363 57.662 29.2347 57.662 29.2331 57.662C29.2315 57.662 29.2298 57.662 29.2282 57.662C29.2266 57.662 29.225 57.662 29.2234 57.662C29.2217 57.662 29.2201 57.662 29.2185 57.662C29.2169 57.662 29.2153 57.662 29.2137 57.662C29.2121 57.662 29.2104 57.662 29.2088 57.662C29.2072 57.662 29.2056 57.662 29.204 57.662C29.2024 57.662 29.2008 57.662 29.1991 57.662C29.1975 57.662 29.1959 57.662 29.1943 57.662C29.1927 57.662 29.1911 57.662 29.1895 57.662C29.1879 57.662 29.1862 57.662 29.1846 57.662C29.183 57.662 29.1814 57.662 29.1798 57.662C29.1782 57.662 29.1766 57.662 29.175 57.662C29.1734 57.662 29.1718 57.662 29.1701 57.662C29.1685 57.662 29.1669 57.662 29.1653 57.662C29.1637 57.662 29.1621 57.662 29.1605 57.662C29.1589 57.662 29.1573 57.662 29.1557 57.662C29.1541 57.662 29.1525 57.662 29.1509 57.662C29.1493 57.662 29.1477 57.662 29.1461 57.662C29.1444 57.662 29.1428 57.662 29.1412 57.662C29.1396 57.662 29.138 57.662 29.1364 57.662C29.1348 57.662 29.1332 57.662 29.1316 57.662C29.13 57.662 29.1284 57.662 29.1268 57.662C29.1252 57.662 29.1236 57.662 29.122 57.662C29.1204 57.662 29.1188 57.662 29.1172 57.662C29.1156 57.662 29.114 57.662 29.1124 57.662C29.1108 57.662 29.1092 57.662 29.1076 57.662C29.106 57.662 29.1044 57.662 29.1028 57.662C29.1012 57.662 29.0996 57.662 29.098 57.662C29.0964 57.662 29.0948 57.662 29.0933 57.662C29.0917 57.662 29.0901 57.662 29.0885 57.662C29.0869 57.662 29.0853 57.662 29.0837 57.662C29.0821 57.662 29.0805 57.662 29.0789 57.662C29.0773 57.662 29.0757 57.662 29.0741 57.662C29.0725 57.662 29.0709 57.662 29.0693 57.662C29.0678 57.662 29.0662 57.662 29.0646 57.662C29.063 57.662 29.0614 57.662 29.0598 57.662C29.0582 57.662 29.0566 57.662 29.055 57.662C29.0534 57.662 29.0519 57.662 29.0503 57.662C29.0487 57.662 29.0471 57.662 29.0455 57.662C29.0439 57.662 29.0423 57.662 29.0407 57.662C29.0392 57.662 29.0376 57.662 29.036 57.662C29.0344 57.662 29.0328 57.662 29.0312 57.662C29.0296 57.662 29.0281 57.662 29.0265 57.662C29.0249 57.662 29.0233 57.662 29.0217 57.662C29.0201 57.662 29.0185 57.662 29.017 57.662C29.0154 57.662 29.0138 57.662 29.0122 57.662C29.0106 57.662 29.0091 57.662 29.0075 57.662C29.0059 57.662 29.0043 57.662 29.0027 57.662C29.0011 57.662 28.9996 57.662 28.998 57.662C28.9964 57.662 28.9948 57.662 28.9933 57.662C28.9917 57.662 28.9901 57.662 28.9885 57.662C28.9869 57.662 28.9854 57.662 28.9838 57.662C28.9822 57.662 28.9806 57.662 28.9791 57.662C28.9775 57.662 28.9759 57.662 28.9743 57.662C28.9727 57.662 28.9712 57.662 28.9696 57.662C28.968 57.662 28.9664 57.662 28.9649 57.662C28.9633 57.662 28.9617 57.662 28.9602 57.662C28.9586 57.662 28.957 57.662 28.9554 57.662C28.9539 57.662 28.9523 57.662 28.9507 57.662C28.9491 57.662 28.9476 57.662 28.946 57.662C28.9444 57.662 28.9429 57.662 28.9413 57.662C28.9397 57.662 28.9381 57.662 28.9366 57.662C28.935 57.662 28.9334 57.662 28.9319 57.662C28.9303 57.662 28.9287 57.662 28.9272 57.662C28.9256 57.662 28.924 57.662 28.9225 57.662C28.9209 57.662 28.9193 57.662 28.9178 57.662C28.9162 57.662 28.9146 57.662 28.9131 57.662C28.9115 57.662 28.9099 57.662 28.9084 57.662C28.9068 57.662 28.9052 57.662 28.9037 57.662C28.9021 57.662 28.9006 57.662 28.899 57.662C28.8974 57.662 28.8959 57.662 28.8943 57.662C28.8927 57.662 28.8912 57.662 28.8896 57.662C28.8881 57.662 28.8865 57.662 28.8849 57.662C28.8834 57.662 28.8818 57.662 28.8802 57.662C28.8787 57.662 28.8771 57.662 28.8756 57.662C28.874 57.662 28.8725 57.662 28.8709 57.662C28.8693 57.662 28.8678 57.662 28.8662 57.662C28.8647 57.662 28.8631 57.662 28.8615 57.662C28.86 57.662 28.8584 57.662 28.8569 57.662C28.8553 57.662 28.8538 57.662 28.8522 57.662C28.8507 57.662 28.8491 57.662 28.8475 57.662C28.846 57.662 28.8444 57.662 28.8429 57.662C28.8413 57.662 28.8398 57.662 28.8382 57.662C28.8367 57.662 28.8351 57.662 28.8336 57.662C28.832 57.662 28.8305 57.662 28.8289 57.662C28.8274 57.662 28.8258 57.662 28.8243 57.662C28.8227 57.662 28.8212 57.662 28.8196 57.662C28.8181 57.662 28.8165 57.662 28.815 57.662C28.8134 57.662 28.8119 57.662 28.8103 57.662C28.8088 57.662 28.8072 57.662 28.8057 57.662C28.8041 57.662 28.8026 57.662 28.801 57.662C28.7995 57.662 28.7979 57.662 28.7964 57.662C28.7949 57.662 28.7933 57.662 28.7918 57.662C28.7902 57.662 28.7887 57.662 28.7871 57.662C28.7856 57.662 28.784 57.662 28.7825 57.662C28.781 57.662 28.7794 57.662 28.7779 57.662C28.7763 57.662 28.7748 57.662 28.7732 57.662C28.7717 57.662 28.7702 57.662 28.7686 57.662C28.7671 57.662 28.7655 57.662 28.764 57.662C28.7625 57.662 28.7609 57.662 28.7594 57.662C28.7578 57.662 28.7563 57.662 28.7548 57.662C28.7532 57.662 28.7517 57.662 28.7501 57.662C28.7486 57.662 28.7471 57.662 28.7455 57.662C28.744 57.662 28.7425 57.662 28.7409 57.662C28.7394 57.662 28.7379 57.662 28.7363 57.662C28.7348 57.662 28.7332 57.662 28.7317 57.662C28.7302 57.662 28.7286 57.662 28.7271 57.662C28.7256 57.662 28.724 57.662 28.7225 57.662C28.721 57.662 28.7194 57.662 28.7179 57.662C28.7164 57.662 28.7149 57.662 28.7133 57.662C28.7118 57.662 28.7103 57.662 28.7087 57.662C28.7072 57.662 28.7057 57.662 28.7041 57.662C28.7026 57.662 28.7011 57.662 28.6995 57.662C28.698 57.662 28.6965 57.662 28.695 57.662C28.6934 57.662 28.6919 57.662 28.6904 57.662C28.6889 57.662 28.6873 57.662 28.6858 57.662C28.6843 57.662 28.6827 57.662 28.6812 57.662C28.6797 57.662 28.6782 57.662 28.6766 57.662C28.6751 57.662 28.6736 57.662 28.6721 57.662C28.6705 57.662 28.669 57.662 28.6675 57.662C28.666 57.662 28.6645 57.662 28.6629 57.662C28.6614 57.662 28.6599 57.662 28.6584 57.662C28.6568 57.662 28.6553 57.662 28.6538 57.662C28.6523 57.662 28.6508 57.662 28.6492 57.662C28.6477 57.662 28.6462 57.662 28.6447 57.662C28.6432 57.662 28.6416 57.662 28.6401 57.662C28.6386 57.662 28.6371 57.662 28.6356 57.662C28.634 57.662 28.6325 57.662 28.631 57.662C28.6295 57.662 28.628 57.662 28.6265 57.662C28.6249 57.662 28.6234 57.662 28.6219 57.662C28.6204 57.662 28.6189 57.662 28.6174 57.662C28.6159 57.662 28.6143 57.662 28.6128 57.662C28.6113 57.662 28.6098 57.662 28.6083 57.662C28.6068 57.662 28.6053 57.662 28.6037 57.662C28.6022 57.662 28.6007 57.662 28.5992 57.662C28.5977 57.662 28.5962 57.662 28.5947 57.662C28.5932 57.662 28.5917 57.662 28.5901 57.662C28.5886 57.662 28.5871 57.662 28.5856 57.662C28.5841 57.662 28.5826 57.662 28.5811 57.662C28.5796 57.662 28.5781 57.662 28.5766 57.662C28.5751 57.662 28.5736 57.662 28.572 57.662C28.5705 57.662 28.569 57.662 28.5675 57.662C28.566 57.662 28.5645 57.662 28.563 57.662C28.5615 57.662 28.56 57.662 28.5585 57.662C28.557 57.662 28.5555 57.662 28.554 57.662C28.5525 57.662 28.551 57.662 28.5495 57.662C28.548 57.662 28.5465 57.662 28.545 57.662C28.5435 57.662 28.542 57.662 28.5405 57.662C28.539 57.662 28.5375 57.662 28.536 57.662C28.5345 57.662 28.533 57.662 28.5315 57.662C28.53 57.662 28.5285 57.662 28.527 57.662C28.5255 57.662 28.524 57.662 28.5225 57.662C28.521 57.662 28.5195 57.662 28.518 57.662C28.5165 57.662 28.515 57.662 28.5135 57.662C28.512 57.662 28.5105 57.662 28.509 57.662C28.5075 57.662 28.506 57.662 28.5045 57.662C28.503 57.662 28.5015 57.662 28.5 57.662C28.4985 57.662 28.497 57.662 28.4955 57.662C28.4941 57.662 28.4926 57.662 28.4911 57.662C28.4896 57.662 28.4881 57.662 28.4866 57.662C28.4851 57.662 28.4836 57.662 28.4821 57.662C28.4806 57.662 28.4791 57.662 28.4776 57.662C28.4762 57.662 28.4747 57.662 28.4732 57.662C28.4717 57.662 28.4702 57.662 28.4687 57.662C28.4672 57.662 28.4657 57.662 28.4642 57.662C28.4628 57.662 28.4613 57.662 28.4598 57.662C28.4583 57.662 28.4568 57.662 28.4553 57.662C28.4538 57.662 28.4523 57.662 28.4509 57.662C28.4494 57.662 28.4479 57.662 28.4464 57.662C28.4449 57.662 28.4434 57.662 28.442 57.662C28.4405 57.662 28.439 57.662 28.4375 57.662C28.436 57.662 28.4345 57.662 28.4331 57.662C28.4316 57.662 28.4301 57.662 28.4286 57.662C28.4271 57.662 28.4257 57.662 28.4242 57.662C28.4227 57.662 28.4212 57.662 28.4197 57.662C28.4183 57.662 28.4168 57.662 28.4153 57.662C28.4138 57.662 28.4123 57.662 28.4109 57.662C28.4094 57.662 28.4079 57.662 28.4064 57.662C28.4049 57.662 28.4035 57.662 28.402 57.662C28.4005 57.662 28.399 57.662 28.3976 57.662C28.3961 57.662 28.3946 57.662 28.3931 57.662C28.3917 57.662 28.3902 57.662 28.3887 57.662C28.3872 57.662 28.3858 57.662 28.3843 57.662C28.3828 57.662 28.3813 57.662 28.3799 57.662C28.3784 57.662 28.3769 57.662 28.3755 57.662C28.374 57.662 28.3725 57.662 28.371 57.662C28.3696 57.662 28.3681 57.662 28.3666 57.662C28.3652 57.662 28.3637 57.662 28.3622 57.662C28.3607 57.662 28.3593 57.662 28.3578 57.662C28.3563 57.662 28.3549 57.662 28.3534 57.662C28.3519 57.662 28.3505 57.662 28.349 57.662C28.3475 57.662 28.3461 57.662 28.3446 57.662C28.3431 57.662 28.3417 57.662 28.3402 57.662C28.3387 57.662 28.3373 57.662 28.3358 57.662C28.3343 57.662 28.3329 57.662 28.3314 57.662C28.33 57.662 28.3285 57.662 28.327 57.662C28.3256 57.662 28.3241 57.662 28.3226 57.662C28.3212 57.662 28.3197 57.662 28.3183 57.662C28.3168 57.662 28.3153 57.662 28.3139 57.662C28.3124 57.662 28.3109 57.662 28.3095 57.662C28.308 57.662 28.3066 57.662 28.3051 57.662C28.3037 57.662 28.3022 57.662 28.3007 57.662C28.2993 57.662 28.2978 57.662 28.2964 57.662C28.2949 57.662 28.2934 57.662 28.292 57.662C28.2905 57.662 28.2891 57.662 28.2876 57.662C28.2862 57.662 28.2847 57.662 28.2833 57.662C28.2818 57.662 28.2803 57.662 28.2789 57.662C28.2774 57.662 28.276 57.662 28.2745 57.662C28.2731 57.662 28.2716 57.662 28.2702 57.662C28.2687 57.662 28.2673 57.662 28.2658 57.662C28.2644 57.662 28.2629 57.662 28.2615 57.662C28.26 57.662 28.2586 57.662 28.2571 57.662C28.2557 57.662 28.2542 57.662 28.2528 57.662C28.2513 57.662 28.2499 57.662 28.2484 57.662C28.247 57.662 28.2455 57.662 28.2441 57.662C28.2426 57.662 28.2412 57.662 28.2397 57.662C28.2383 57.662 28.2368 57.662 28.2354 57.662C28.2339 57.662 28.2325 57.662 28.231 57.662C28.2296 57.662 28.2281 57.662 28.2267 57.662C28.2253 57.662 28.2238 57.662 28.2224 57.662C28.2209 57.662 28.2195 57.662 28.218 57.662C28.2166 57.662 28.2152 57.662 28.2137 57.662C28.2123 57.662 28.2108 57.662 28.2094 57.662C28.2079 57.662 28.2065 57.662 28.2051 57.662C28.2036 57.662 28.2022 57.662 28.2007 57.662C28.1993 57.662 28.1979 57.662 28.1964 57.662C28.195 57.662 28.1935 57.662 28.1921 57.662C28.1907 57.662 28.1892 57.662 28.1878 57.662C28.1863 57.662 28.1849 57.662 28.1835 57.662C28.182 57.662 28.1806 57.662 28.1792 57.662C28.1777 57.662 28.1763 57.662 28.1749 57.662C28.1734 57.662 28.172 57.662 28.1706 57.662C28.1691 57.662 28.1677 57.662 28.1662 57.662C28.1648 57.662 28.1634 57.662 28.1619 57.662C28.1605 57.662 28.1591 57.662 28.1577 57.662C28.1562 57.662 28.1548 57.662 28.1534 57.662C28.1519 57.662 28.1505 57.662 28.1491 57.662C28.1476 57.662 28.1462 57.662 28.1448 57.662C28.1433 57.662 28.1419 57.662 28.1405 57.662C28.1391 57.662 28.1376 57.662 28.1362 57.662C28.1348 57.662 28.1333 57.662 28.1319 57.662C28.1305 57.662 28.1291 57.662 28.1276 57.662C28.1262 57.662 28.1248 57.662 28.1234 57.662C28.1219 57.662 28.1205 57.662 28.1191 57.662C28.1177 57.662 28.1162 57.662 28.1148 57.662C28.1134 57.662 28.112 57.662 28.1105 57.662C28.1091 57.662 28.1077 57.662 28.1063 57.662C28.1048 57.662 28.1034 57.662 28.102 57.662C28.1006 57.662 28.0992 57.662 28.0977 57.662C28.0963 57.662 28.0949 57.662 28.0935 57.662C28.0921 57.662 28.0906 57.662 28.0892 57.662C28.0878 57.662 28.0864 57.662 28.085 57.662C28.0835 57.662 28.0821 57.662 28.0807 57.662C28.0793 57.662 28.0779 57.662 28.0764 57.662C28.075 57.662 28.0736 57.662 28.0722 57.662C28.0708 57.662 28.0694 57.662 28.0679 57.662C28.0665 57.662 28.0651 57.662 28.0637 57.662C28.0623 57.662 28.0609 57.662 28.0595 57.662C28.058 57.662 28.0566 57.662 28.0552 57.662C28.0538 57.662 28.0524 57.662 28.051 57.662C28.0496 57.662 28.0482 57.662 28.0467 57.662C28.0453 57.662 28.0439 57.662 28.0425 57.662C28.0411 57.662 28.0397 57.662 28.0383 57.662C28.0369 57.662 28.0355 57.662 28.0341 57.662C28.0326 57.662 28.0312 57.662 28.0298 57.662C28.0284 57.662 28.027 57.662 28.0256 57.662C28.0242 57.662 28.0228 57.662 28.0214 57.662C28.02 57.662 28.0186 57.662 28.0172 57.662C28.0158 57.662 28.0143 57.662 28.0129 57.662C28.0115 57.662 28.0101 57.662 28.0087 57.662C28.0073 57.662 28.0059 57.662 28.0045 57.662C28.0031 57.662 28.0017 57.662 28.0003 57.662C27.9989 57.662 27.9975 57.662 27.9961 57.662C27.9947 57.662 27.9933 57.662 27.9919 57.662C27.9905 57.662 27.9891 57.662 27.9877 57.662C27.9863 57.662 27.9849 57.662 27.9835 57.662C27.9821 57.662 27.9807 57.662 27.9793 57.662C27.9779 57.662 27.9765 57.662 27.9751 57.662C27.9737 57.662 27.9723 57.662 27.9709 57.662C27.9695 57.662 27.9681 57.662 27.9667 57.662C27.9653 57.662 27.9639 57.662 27.9625 57.662C27.9611 57.662 27.9597 57.662 27.9583 57.662C27.9569 57.662 27.9556 57.662 27.9542 57.662C27.9528 57.662 27.9514 57.662 27.95 57.662C27.9486 57.662 27.9472 57.662 27.9458 57.662C27.9444 57.662 27.943 57.662 27.9416 57.662C27.9402 57.662 27.9388 57.662 27.9374 57.662C27.9361 57.662 27.9347 57.662 27.9333 57.662C27.9319 57.662 27.9305 57.662 27.9291 57.662C27.9277 57.662 27.9263 57.662 27.9249 57.662C27.9236 57.662 27.9222 57.662 27.9208 57.662C27.9194 57.662 27.918 57.662 27.9166 57.662C27.9152 57.662 27.9138 57.662 27.9125 57.662C27.9111 57.662 27.9097 57.662 27.9083 57.662C27.9069 57.662 27.9055 57.662 27.9041 57.662C27.9028 57.662 27.9014 57.662 27.9 57.662C27.8986 57.662 27.8972 57.662 27.8958 57.662C27.8945 57.662 27.8931 57.662 27.8917 57.662C27.8903 57.662 27.8889 57.662 27.8875 57.662C27.8862 57.662 27.8848 57.662 27.8834 57.662C27.882 57.662 27.8806 57.662 27.8793 57.662C27.8779 57.662 27.8765 57.662 27.8751 57.662C27.8737 57.662 27.8724 57.662 27.871 57.662C27.8696 57.662 27.8682 57.662 27.8669 57.662C27.8655 57.662 27.8641 57.662 27.8627 57.662C27.8613 57.662 27.86 57.662 27.8586 57.662C27.8572 57.662 27.8558 57.662 27.8545 57.662C27.8531 57.662 27.8517 57.662 27.8503 57.662C27.849 57.662 27.8476 57.662 27.8462 57.662C27.8448 57.662 27.8435 57.662 27.8421 57.662C27.8407 57.662 27.8394 57.662 27.838 57.662C27.8366 57.662 27.8352 57.662 27.8339 57.662C27.8325 57.662 27.8311 57.662 27.8298 57.662C27.8284 57.662 27.827 57.662 27.8257 57.662C27.8243 57.662 27.8229 57.662 27.8215 57.662C27.8202 57.662 27.8188 57.662 27.8174 57.662C27.8161 57.662 27.8147 57.662 27.8133 57.662C27.812 57.662 27.8106 57.662 27.8092 57.662C27.8079 57.662 27.8065 57.662 27.8051 57.662C27.8038 57.662 27.8024 57.662 27.801 57.662C27.7997 57.662 27.7983 57.662 27.7969 57.662C27.7956 57.662 27.7942 57.662 27.7929 57.662C27.7915 57.662 27.7901 57.662 27.7888 57.662C27.7874 57.662 27.786 57.662 27.7847 57.662C27.7833 57.662 27.782 57.662 27.7806 57.662C27.7792 57.662 27.7779 57.662 27.7765 57.662C27.7752 57.662 27.7738 57.662 27.7724 57.662C27.7711 57.662 27.7697 57.662 27.7684 57.662C27.767 57.662 27.7656 57.662 27.7643 57.662C27.7629 57.662 27.7616 57.662 27.7602 57.662C27.7589 57.662 27.7575 57.662 27.7561 57.662C27.7548 57.662 27.7534 57.662 27.7521 57.662C27.7507 57.662 27.7494 57.662 27.748 57.662C27.7467 57.662 27.7453 57.662 27.744 57.662C27.7426 57.662 27.7412 57.662 27.7399 57.662C27.7385 57.662 27.7372 57.662 27.7358 57.662C27.7345 57.662 27.7331 57.662 27.7318 57.662C27.7304 57.662 27.7291 57.662 27.7277 57.662C27.7264 57.662 27.725 57.662 27.7237 57.662C27.7223 57.662 27.721 57.662 27.7196 57.662C27.7183 57.662 27.7169 57.662 27.7156 57.662C27.7142 57.662 27.7129 57.662 27.7115 57.662C27.7102 57.662 27.7089 57.662 27.7075 57.662C27.7062 57.662 27.7048 57.662 27.7035 57.662C27.7021 57.662 27.7008 57.662 27.6994 57.662C27.6981 57.662 27.6967 57.662 27.6954 57.662C27.6941 57.662 27.6927 57.662 27.6914 57.662C27.69 57.662 27.6887 57.662 27.6873 57.662C27.686 57.662 27.6847 57.662 27.6833 57.662C27.682 57.662 27.6806 57.662 27.6793 57.662C27.6779 57.662 27.6766 57.662 27.6753 57.662C27.6739 57.662 27.6726 57.662 27.6712 57.662C27.6699 57.662 27.6686 57.662 27.6672 57.662C27.6659 57.662 27.6646 57.662 27.6632 57.662C27.6619 57.662 27.6605 57.662 27.6592 57.662C27.6579 57.662 27.6565 57.662 27.6552 57.662C27.6539 57.662 27.6525 57.662 27.6512 57.662C27.6498 57.662 27.6485 57.662 27.6472 57.662C27.6458 57.662 27.6445 57.662 27.6432 57.662C27.6418 57.662 27.6405 57.662 27.6392 57.662C27.6378 57.662 27.6365 57.662 27.6352 57.662C27.6338 57.662 27.6325 57.662 27.6312 57.662C27.6299 57.662 27.6285 57.662 27.6272 57.662C27.6259 57.662 27.6245 57.662 27.6232 57.662C27.6219 57.662 27.6205 57.662 27.6192 57.662C27.6179 57.662 27.6166 57.662 27.6152 57.662C27.6139 57.662 27.6126 57.662 27.6112 57.662C27.6099 57.662 27.6086 57.662 27.6073 57.662C27.6059 57.662 27.6046 57.662 27.6033 57.662C27.602 57.662 27.6006 57.662 27.5993 57.662C27.598 57.662 27.5967 57.662 27.5953 57.662C27.594 57.662 27.5927 57.662 27.5914 57.662C27.59 57.662 27.5887 57.662 27.5874 57.662C27.5861 57.662 27.5847 57.662 27.5834 57.662C27.5821 57.662 27.5808 57.662 27.5795 57.662C27.5781 57.662 27.5768 57.662 27.5755 57.662C27.5742 57.662 27.5729 57.662 27.5715 57.662C27.5702 57.662 27.5689 57.662 27.5676 57.662C27.5663 57.662 27.5649 57.662 27.5636 57.662C27.5623 57.662 27.561 57.662 27.5597 57.662C27.5584 57.662 27.557 57.662 27.5557 57.662C27.5544 57.662 27.5531 57.662 27.5518 57.662C27.5505 57.662 27.5491 57.662 27.5478 57.662C27.5465 57.662 27.5452 57.662 27.5439 57.662C27.5426 57.662 27.5413 57.662 27.5399 57.662C27.5386 57.662 27.5373 57.662 27.536 57.662C27.5347 57.662 27.5334 57.662 27.5321 57.662C27.5308 57.662 27.5294 57.662 27.5281 57.662C27.5268 57.662 27.5255 57.662 27.5242 57.662C27.5229 57.662 27.5216 57.662 27.5203 57.662C27.519 57.662 27.5177 57.662 27.5164 57.662C27.515 57.662 27.5137 57.662 27.5124 57.662C27.5111 57.662 27.5098 57.662 27.5085 57.662C27.5072 57.662 27.5059 57.662 27.5046 57.662C27.5033 57.662 27.502 57.662 27.5007 57.662C27.4994 57.662 27.4981 57.662 27.4968 57.662C27.4955 57.662 27.4941 57.662 27.4928 57.662C27.4915 57.662 27.4902 57.662 27.4889 57.662C27.4876 57.662 27.4863 57.662 27.485 57.662C27.4837 57.662 27.4824 57.662 27.4811 57.662C27.4798 57.662 27.4785 57.662 27.4772 57.662C27.4759 57.662 27.4746 57.662 27.4733 57.662C27.472 57.662 27.4707 57.662 27.4694 57.662C27.4681 57.662 27.4668 57.662 27.4655 57.662C27.4642 57.662 27.4629 57.662 27.4616 57.662C27.4603 57.662 27.459 57.662 27.4577 57.662C27.4564 57.662 27.4551 57.662 27.4539 57.662C27.4526 57.662 27.4513 57.662 27.45 57.662C27.4487 57.662 27.4474 57.662 27.4461 57.662C27.4448 57.662 27.4435 57.662 27.4422 57.662C27.4409 57.662 27.4396 57.662 27.4383 57.662C27.437 57.662 27.4357 57.662 27.4344 57.662C27.4332 57.662 27.4319 57.662 27.4306 57.662C27.4293 57.662 27.428 57.662 27.4267 57.662C27.4254 57.662 27.4241 57.662 27.4228 57.662C27.4215 57.662 27.4203 57.662 27.419 57.662C27.4177 57.662 27.4164 57.662 27.4151 57.662C27.4138 57.662 27.4125 57.662 27.4112 57.662C27.41 57.662 27.4087 57.662 27.4074 57.662C27.4061 57.662 27.4048 57.662 27.4035 57.662C27.4022 57.662 27.4009 57.662 27.3997 57.662C27.3984 57.662 27.3971 57.662 27.3958 57.662C27.3945 57.662 27.3932 57.662 27.392 57.662C27.3907 57.662 27.3894 57.662 27.3881 57.662C27.3868 57.662 27.3856 57.662 27.3843 57.662C27.383 57.662 27.3817 57.662 27.3804 57.662C27.3791 57.662 27.3779 57.662 27.3766 57.662C27.3753 57.662 27.374 57.662 27.3727 57.662C27.3715 57.662 27.3702 57.662 27.3689 57.662C27.3676 57.662 27.3664 57.662 27.3651 57.662C27.3638 57.662 27.3625 57.662 27.3612 57.662C27.36 57.662 27.3587 57.662 27.3574 57.662C27.3561 57.662 27.3549 57.662 27.3536 57.662C27.3523 57.662 27.351 57.662 27.3498 57.662C27.3485 57.662 27.3472 57.662 27.3459 57.662C27.3447 57.662 27.3434 57.662 27.3421 57.662C27.3409 57.662 27.3396 57.662 27.3383 57.662C27.337 57.662 27.3358 57.662 27.3345 57.662C27.3332 57.662 27.332 57.662 27.3307 57.662C27.3294 57.662 27.3281 57.662 27.3269 57.662C27.3256 57.662 27.3243 57.662 27.3231 57.662C27.3218 57.662 27.3205 57.662 27.3193 57.662C27.318 57.662 27.3167 57.662 27.3155 57.662C27.3142 57.662 27.3129 57.662 27.3117 57.662C27.3104 57.662 27.3091 57.662 27.3079 57.662C27.3066 57.662 27.3053 57.662 27.3041 57.662C27.3028 57.662 27.3015 57.662 27.3003 57.662C27.299 57.662 27.2977 57.662 27.2965 57.662C27.2952 57.662 27.294 57.662 27.2927 57.662C27.2914 57.662 27.2902 57.662 27.2889 57.662C27.2876 57.662 27.2864 57.662 27.2851 57.662C27.2839 57.662 27.2826 57.662 27.2813 57.662C27.2801 57.662 27.2788 57.662 27.2776 57.662C27.2763 57.662 27.275 57.662 27.2738 57.662C27.2725 57.662 27.2713 57.662 27.27 57.662C27.2688 57.662 27.2675 57.662 27.2662 57.662C27.265 57.662 27.2637 57.662 27.2625 57.662C27.2612 57.662 27.26 57.662 27.2587 57.662C27.2574 57.662 27.2562 57.662 27.2549 57.662C27.2537 57.662 27.2524 57.662 27.2512 57.662C27.2499 57.662 27.2487 57.662 27.2474 57.662C27.2462 57.662 27.2449 57.662 27.2437 57.662C27.2424 57.662 27.2412 57.662 27.2399 57.662C27.2387 57.662 27.2374 57.662 27.2362 57.662C27.2349 57.662 27.2337 57.662 27.2324 57.662C27.2312 57.662 27.2299 57.662 27.2287 57.662C27.2274 57.662 27.2262 57.662 27.2249 57.662C27.2237 57.662 27.2224 57.662 27.2212 57.662C27.2199 57.662 27.2187 57.662 27.2174 57.662C27.2162 57.662 27.2149 57.662 27.2137 57.662C27.2124 57.662 27.2112 57.662 27.2099 57.662C27.2087 57.662 27.2075 57.662 27.2062 57.662C27.205 57.662 27.2037 57.662 27.2025 57.662C27.2012 57.662 27.2 57.662 27.1988 57.662C27.1975 57.662 27.1963 57.662 27.195 57.662C27.1938 57.662 27.1925 57.662 27.1913 57.662C27.1901 57.662 27.1888 57.662 27.1876 57.662C27.1863 57.662 27.1851 57.662 27.1839 57.662C27.1826 57.662 27.1814 57.662 27.1801 57.662C27.1789 57.662 27.1777 57.662 27.1764 57.662C27.1752 57.662 27.174 57.662 27.1727 57.662C27.1715 57.662 27.1702 57.662 27.169 57.662C27.1678 57.662 27.1665 57.662 27.1653 57.662C27.1641 57.662 27.1628 57.662 27.1616 57.662C27.1604 57.662 27.1591 57.662 27.1579 57.662C27.1567 57.662 27.1554 57.662 27.1542 57.662C27.153 57.662 27.1517 57.662 27.1505 57.662C27.1493 57.662 27.148 57.662 27.1468 57.662C27.1456 57.662 27.1443 57.662 27.1431 57.662C27.1419 57.662 27.1406 57.662 27.1394 57.662C27.1382 57.662 27.137 57.662 27.1357 57.662C27.1345 57.662 27.1333 57.662 27.132 57.662C27.1308 57.662 27.1296 57.662 27.1284 57.662C27.1271 57.662 27.1259 57.662 27.1247 57.662C27.1235 57.662 27.1222 57.662 27.121 57.662C27.1198 57.662 27.1185 57.662 27.1173 57.662C27.1161 57.662 27.1149 57.662 27.1136 57.662C27.1124 57.662 27.1112 57.662 27.11 57.662C27.1088 57.662 27.1075 57.662 27.1063 57.662C27.1051 57.662 27.1039 57.662 27.1026 57.662C27.1014 57.662 27.1002 57.662 27.099 57.662C27.0978 57.662 27.0965 57.662 27.0953 57.662C27.0941 57.662 27.0929 57.662 27.0917 57.662C27.0904 57.662 27.0892 57.662 27.088 57.662V61.662ZM57.4727 75L53.6398 73.8556L52.1039 79H57.4727V75ZM73.7747 20.4V16.4H70.7945L69.9418 19.2556L73.7747 20.4ZM96.0827 20.4L99.9109 19.2406L99.0506 16.4H96.0827V20.4ZM112.619 75V79H118.01L116.447 73.8406L112.619 75ZM92.7287 75L88.8311 75.8994L89.5466 79H92.7287V75ZM91.0907 67.902L94.9882 67.0026L94.2727 63.902H91.0907V67.902ZM78.0647 67.902V63.902H74.8483L74.1579 67.0434L78.0647 67.902ZM76.5047 75V79H79.721L80.4114 75.8586L76.5047 75ZM81.2627 53.082L77.3201 52.4066L76.5191 57.082H81.2627V53.082ZM87.8927 53.082V57.082H92.6176L91.8378 52.4219L87.8927 53.082ZM84.6167 33.504L88.5618 32.8439L80.6741 32.8286L84.6167 33.504ZM57.4727 75L61.3055 76.1444L77.6075 21.5444L73.7747 20.4L69.9418 19.2556L53.6398 73.8556L57.4727 75ZM73.7747 20.4V24.4H96.0827V20.4V16.4H73.7747V20.4ZM96.0827 20.4L92.2544 21.5594L108.79 76.1594L112.619 75L116.447 73.8406L99.9109 19.2406L96.0827 20.4ZM112.619 75V71H92.7287V75V79H112.619V75ZM92.7287 75L96.6262 74.1006L94.9882 67.0026L91.0907 67.902L87.1931 68.8014L88.8311 75.8994L92.7287 75ZM91.0907 67.902V63.902H78.0647V67.902V71.902H91.0907V67.902ZM78.0647 67.902L74.1579 67.0434L72.5979 74.1414L76.5047 75L80.4114 75.8586L81.9714 68.7606L78.0647 67.902ZM76.5047 75V71H57.4727V75V79H76.5047V75ZM81.2627 53.082V57.082H87.8927V53.082V49.082H81.2627V53.082ZM87.8927 53.082L91.8378 52.4219L88.5618 32.8439L84.6167 33.504L80.6715 34.1641L83.9475 53.7421L87.8927 53.082ZM84.6167 33.504L80.6741 32.8286L77.3201 52.4066L81.2627 53.082L85.2052 53.7574L88.5592 34.1794L84.6167 33.504ZM160.877 36.39V40.39H164.877V36.39H160.877ZM145.355 36.39V32.39H141.355V36.39H145.355ZM145.355 75V79H149.355V75H145.355ZM127.181 75H123.181V79H127.181V75ZM127.181 36.39H131.181V32.39H127.181V36.39ZM111.659 36.39H107.659V40.39H111.659V36.39ZM111.659 20.4V16.4H107.659V20.4H111.659ZM160.877 20.4H164.877V16.4H160.877V20.4ZM160.877 36.39V32.39H145.355V36.39V40.39H160.877V36.39ZM145.355 36.39H141.355V75H145.355H149.355V36.39H145.355ZM145.355 75V71H127.181V75V79H145.355V75ZM127.181 75H131.181V36.39H127.181H123.181V75H127.181ZM127.181 36.39V32.39H111.659V36.39V40.39H127.181V36.39ZM111.659 36.39H115.659V20.4H111.659H107.659V36.39H111.659ZM111.659 20.4V24.4H160.877V20.4V16.4H111.659V20.4ZM160.877 20.4H156.877V36.39H160.877H164.877V20.4H160.877ZM168.903 75H164.903V79H168.903V75ZM168.903 20.4V16.4H164.903V20.4H168.903ZM211.491 20.4H215.491V16.4H211.491V20.4ZM211.491 35.376V39.376H215.491V35.376H211.491ZM186.843 35.376V31.376H182.843V35.376H186.843ZM186.843 40.992H182.843V44.992H186.843V40.992ZM209.385 40.992H213.385V36.992H209.385V40.992ZM209.385 54.486V58.486H213.385V54.486H209.385ZM186.843 54.486V50.486H182.843V54.486H186.843ZM186.843 60.258H182.843V64.258H186.843V60.258ZM212.895 60.258H216.895V56.258H212.895V60.258ZM212.895 75V79H216.895V75H212.895ZM168.903 75H172.903V20.4H168.903H164.903V75H168.903ZM168.903 20.4V24.4H211.491V20.4V16.4H168.903V20.4ZM211.491 20.4H207.491V35.376H211.491H215.491V20.4H211.491ZM211.491 35.376V31.376H186.843V35.376V39.376H211.491V35.376ZM186.843 35.376H182.843V40.992H186.843H190.843V35.376H186.843ZM186.843 40.992V44.992H209.385V40.992V36.992H186.843V40.992ZM209.385 40.992H205.385V54.486H209.385H213.385V40.992H209.385ZM209.385 54.486V50.486H186.843V54.486V58.486H209.385V54.486ZM186.843 54.486H182.843V60.258H186.843H190.843V54.486H186.843ZM186.843 60.258V64.258H212.895V60.258V56.258H186.843V60.258ZM212.895 60.258H208.895V75H212.895H216.895V60.258H212.895ZM212.895 75V71H168.903V75V79H212.895V75Z" fill="white" mask="url(#path-1-outside-1_2315_283)"/>
<rect x="6.646" y="97" width="201" height="29" fill="#FF0000" stroke="white" stroke-width="2"/>
<path d="M36.9244 117V105.364H44.1403V106.875H38.6801V110.42H43.6233V111.926H38.6801V117H36.9244ZM62.3092 117H60.4456L64.6331 105.364H66.6615L70.849 117H68.9854L65.6956 107.477H65.6047L62.3092 117ZM62.6217 112.443H68.6672V113.92H62.6217V112.443ZM98.1273 109.148H96.3546C96.2864 108.769 96.1595 108.436 95.9739 108.148C95.7883 107.86 95.561 107.616 95.2921 107.415C95.0231 107.214 94.722 107.062 94.3887 106.96C94.0591 106.858 93.7087 106.807 93.3375 106.807C92.6671 106.807 92.0667 106.975 91.5364 107.312C91.0099 107.65 90.5932 108.144 90.2864 108.795C89.9834 109.447 89.8318 110.242 89.8318 111.182C89.8318 112.129 89.9834 112.928 90.2864 113.58C90.5932 114.231 91.0118 114.723 91.5421 115.057C92.0724 115.39 92.669 115.557 93.3318 115.557C93.6993 115.557 94.0478 115.508 94.3773 115.409C94.7106 115.307 95.0118 115.157 95.2807 114.96C95.5497 114.763 95.7769 114.523 95.9625 114.239C96.1519 113.951 96.2826 113.621 96.3546 113.25L98.1273 113.256C98.0326 113.828 97.8489 114.354 97.5762 114.835C97.3072 115.312 96.9606 115.725 96.5364 116.074C96.1159 116.419 95.6349 116.686 95.0932 116.875C94.5515 117.064 93.9606 117.159 93.3205 117.159C92.3129 117.159 91.4152 116.92 90.6273 116.443C89.8394 115.962 89.2182 115.275 88.7637 114.381C88.3129 113.487 88.0875 112.42 88.0875 111.182C88.0875 109.939 88.3148 108.873 88.7693 107.983C89.2239 107.089 89.8451 106.403 90.633 105.926C91.4209 105.445 92.3167 105.205 93.3205 105.205C93.9379 105.205 94.5137 105.294 95.0478 105.472C95.5856 105.646 96.0686 105.903 96.4966 106.244C96.9247 106.581 97.2788 106.994 97.5591 107.483C97.8394 107.968 98.0288 108.523 98.1273 109.148ZM116.134 106.875V105.364H125.14V106.875H121.509V117H119.759V106.875H116.134ZM153.218 111.182C153.218 112.424 152.991 113.492 152.536 114.386C152.082 115.277 151.459 115.962 150.667 116.443C149.879 116.92 148.983 117.159 147.979 117.159C146.972 117.159 146.072 116.92 145.28 116.443C144.493 115.962 143.871 115.275 143.417 114.381C142.962 113.487 142.735 112.42 142.735 111.182C142.735 109.939 142.962 108.873 143.417 107.983C143.871 107.089 144.493 106.403 145.28 105.926C146.072 105.445 146.972 105.205 147.979 105.205C148.983 105.205 149.879 105.445 150.667 105.926C151.459 106.403 152.082 107.089 152.536 107.983C152.991 108.873 153.218 109.939 153.218 111.182ZM151.479 111.182C151.479 110.235 151.326 109.437 151.019 108.79C150.716 108.138 150.299 107.646 149.769 107.312C149.243 106.975 148.646 106.807 147.979 106.807C147.309 106.807 146.71 106.975 146.184 107.312C145.657 107.646 145.241 108.138 144.934 108.79C144.631 109.437 144.479 110.235 144.479 111.182C144.479 112.129 144.631 112.928 144.934 113.58C145.241 114.227 145.657 114.72 146.184 115.057C146.71 115.39 147.309 115.557 147.979 115.557C148.646 115.557 149.243 115.39 149.769 115.057C150.299 114.72 150.716 114.227 151.019 113.58C151.326 112.928 151.479 112.129 151.479 111.182ZM171.887 117V105.364H176.035C176.936 105.364 177.684 105.519 178.279 105.83C178.877 106.14 179.324 106.57 179.62 107.119C179.915 107.665 180.063 108.295 180.063 109.011C180.063 109.723 179.913 110.35 179.614 110.892C179.319 111.43 178.872 111.848 178.273 112.148C177.679 112.447 176.93 112.597 176.029 112.597H172.887V111.085H175.87C176.438 111.085 176.9 111.004 177.256 110.841C177.616 110.678 177.879 110.441 178.046 110.131C178.213 109.82 178.296 109.447 178.296 109.011C178.296 108.572 178.211 108.191 178.04 107.869C177.874 107.547 177.61 107.301 177.251 107.131C176.894 106.956 176.427 106.869 175.847 106.869H173.643V117H171.887ZM177.631 111.75L180.506 117H178.506L175.688 111.75H177.631Z" fill="white"/>
</svg>
