<svg width="72" height="72" viewBox="0 0 72 72" fill="none" xmlns="http://www.w3.org/2000/svg">
<path d="M36.0445 47.5L24 60.5C8.55 46.49 4.5 38.81 4.5 27.5C4.5 18.23 13.3045 11 22.5445 11C27.7645 11 32.7745 18.19 36.0445 22C39.3145 18.19 44.3245 11 49.5445 11C58.7845 11 67.5 18.23 67.5 27.5C67.5 38.81 63.95 46.49 48.5 60.5L36.0445 47.5Z" fill="url(#paint0_linear_2319_112)"/>
<path d="M36 68L29.0718 58.25H42.9282L36 68Z" fill="white"/>
<path d="M36 0L42.9282 9.75L29.0718 9.75L36 0Z" fill="white"/>
<path d="M36 64L36 8" stroke="white" stroke-width="2"/>
<path d="M29.9012 43.7474L22.3065 43.6036L22.3694 40.2802C22.382 39.6163 22.4485 39.0615 22.569 38.6157C22.6815 38.1697 22.8762 37.8134 23.1533 37.5466C23.4304 37.2798 23.8141 37.091 24.3043 36.9802C24.7864 36.8693 25.4075 36.8211 26.1673 36.8355C26.9592 36.8505 27.6059 36.9227 28.1076 37.0522C28.6092 37.1818 28.9974 37.3852 29.2722 37.6624C29.547 37.9397 29.7362 38.3033 29.8397 38.7533C29.9352 39.2032 29.9767 39.7601 29.9641 40.424L29.9012 43.7474ZM23.9839 40.5868L23.9626 41.7146L28.3178 41.7971L28.3392 40.6693C28.3479 40.2054 28.3028 39.8404 28.2039 39.5745C28.105 39.3006 27.8967 39.1046 27.5789 38.9866C27.2612 38.8606 26.7784 38.7914 26.1305 38.7791C25.5146 38.7675 25.0576 38.8188 24.7594 38.9332C24.4533 39.0394 24.2497 39.2276 24.1486 39.4977C24.0476 39.7599 23.9927 40.1229 23.9839 40.5868ZM28.3878 33.6619C28.5641 33.6492 28.7163 33.6401 28.8444 33.6345C28.9645 33.6288 29.0926 33.6272 29.2286 33.6298C29.3565 33.6322 29.4884 33.6387 29.6243 33.6493C29.7521 33.6597 29.8998 33.6745 30.0675 33.6937C30.0957 33.8943 30.1199 34.0947 30.1401 34.2952C30.1603 34.4956 30.1686 34.6958 30.1648 34.8957C30.1611 35.0877 30.1455 35.2794 30.1179 35.471C30.0902 35.6625 30.0585 35.8579 30.0228 36.0573C29.8623 36.0782 29.7181 36.0915 29.5899 36.0971C29.4538 36.1025 29.3217 36.104 29.1938 36.1016C29.0738 36.0993 28.9459 36.0929 28.8101 36.0823C28.6742 36.0717 28.5186 36.0528 28.3431 36.0255C28.2786 35.6242 28.2501 35.2276 28.2576 34.8356C28.265 34.4437 28.3084 34.0524 28.3878 33.6619ZM30.1482 30.6969L30.1119 32.6166L22.5173 32.4728L22.624 26.8338L24.1837 26.8633L24.1133 30.5827L25.853 30.6156L25.9189 27.1362L27.4786 27.1658L27.4127 30.6451L30.1482 30.6969ZM28.5701 24.0308C28.7464 24.0181 28.8986 24.009 29.0267 24.0034C29.1469 23.9977 29.2749 23.9961 29.4109 23.9987C29.5389 24.0011 29.6708 24.0076 29.8066 24.0182C29.9344 24.0286 30.0822 24.0434 30.2498 24.0626C30.278 24.2632 30.3023 24.4637 30.3225 24.6641C30.3427 24.8645 30.3509 25.0647 30.3471 25.2647C30.3435 25.4566 30.3278 25.6484 30.3002 25.8399C30.2726 26.0314 30.2409 26.2268 30.2051 26.4262C30.0447 26.4471 29.9004 26.4604 29.7723 26.466C29.6361 26.4714 29.5041 26.4729 29.3761 26.4705C29.2561 26.4682 29.1282 26.4618 28.9924 26.4512C28.8566 26.4406 28.7009 26.4217 28.5254 26.3944C28.461 25.9931 28.4325 25.5965 28.4399 25.2045C28.4473 24.8126 28.4907 24.4214 28.5701 24.0308Z" fill="white"/>
<defs>
<linearGradient id="paint0_linear_2319_112" x1="-9.5" y1="36" x2="64.5" y2="15.5" gradientUnits="userSpaceOnUse">
<stop stop-color="#FF3737"/>
<stop offset="1" stop-color="#FC5A5A" stop-opacity="0"/>
</linearGradient>
</defs>
</svg>
