<svg width="270" height="30" viewBox="0 0 270 30" fill="none" xmlns="http://www.w3.org/2000/svg">
<path d="M116.926 3.56363C115.568 4.14942 114.09 4.57102 112.568 4.73522C114.148 3.79633 115.332 2.31303 115.896 0.563627C114.413 1.44583 112.789 2.06444 111.095 2.39203C110.387 1.63505 109.53 1.032 108.579 0.620465C107.628 0.208931 106.602 -0.00227123 105.565 1.84189e-05C101.371 1.84189e-05 97.9985 3.39942 97.9985 7.57102C97.9985 8.15682 98.0695 8.74262 98.1849 9.30622C91.9053 8.97782 86.3047 5.97783 82.5814 1.38463C81.9029 2.54343 81.5474 3.86285 81.5518 5.20564C81.5518 7.83285 82.8876 10.1494 84.9246 11.5118C83.7241 11.4646 82.5518 11.1346 81.503 10.5488V10.642C81.503 14.321 84.1036 17.3698 87.5695 18.071C86.9188 18.2401 86.2493 18.3265 85.5769 18.3284C85.0843 18.3284 84.6184 18.2796 84.1479 18.213C85.1065 21.213 87.8979 23.392 91.2219 23.463C88.6213 25.5 85.3639 26.6982 81.8269 26.6982C81.1923 26.6982 80.6065 26.676 79.9985 26.605C83.3536 28.7574 87.3343 30 91.6213 30C105.538 30 113.154 18.4704 113.154 8.46303C113.154 8.13463 113.154 7.80623 113.132 7.47782C114.605 6.39942 115.896 5.06362 116.926 3.56363Z" fill="white"/>
<path d="M33.8602 2.48809C31.3104 1.33816 28.5773 0.488218 25.7191 0.00491662C25.6937 3.01345e-05 25.6673 0.00317916 25.6437 0.0139283C25.6201 0.0246773 25.6005 0.0424947 25.5875 0.0649127C25.2375 0.679872 24.8475 1.48149 24.5742 2.11478C21.5429 1.66187 18.4611 1.66187 15.4298 2.11478C15.1254 1.41293 14.7821 0.728576 14.4015 0.0649127C14.3886 0.0422187 14.3691 0.0239983 14.3456 0.012683C14.3221 0.00136768 14.2956 -0.00250453 14.2699 0.00158335C11.4134 0.484885 8.68023 1.33483 6.12873 2.48642C6.10678 2.49563 6.08817 2.51133 6.0754 2.53142C0.889076 10.1559 -0.532497 17.5921 0.16579 24.9349C0.167733 24.9529 0.173316 24.9703 0.182197 24.9861C0.191079 25.0018 0.203074 25.0156 0.217453 25.0266C3.24458 27.2305 6.62093 28.9094 10.2051 29.9929C10.2301 30.0006 10.2568 30.0006 10.2818 29.9929C10.3068 29.9852 10.3288 29.9701 10.3451 29.9496C11.1164 28.9181 11.7999 27.8238 12.3883 26.6782C12.3965 26.6625 12.4012 26.6453 12.4021 26.6276C12.4031 26.61 12.4002 26.5923 12.3937 26.5759C12.3872 26.5595 12.3773 26.5446 12.3646 26.5324C12.3519 26.5201 12.3367 26.5107 12.32 26.5048C11.2434 26.0994 10.2003 25.6102 9.2002 25.0416C9.18223 25.0313 9.16708 25.0168 9.15613 24.9992C9.14517 24.9817 9.13874 24.9617 9.13742 24.941C9.1361 24.9204 9.13993 24.8997 9.14856 24.8809C9.15718 24.8621 9.17035 24.8457 9.18686 24.8333C9.39685 24.6783 9.60684 24.5166 9.80682 24.355C9.82482 24.3404 9.84651 24.3312 9.86946 24.3282C9.89241 24.3253 9.91573 24.3288 9.93681 24.3383C16.4814 27.2781 23.5693 27.2781 30.0372 24.3383C30.0583 24.3282 30.0819 24.3243 30.1051 24.3269C30.1284 24.3296 30.1505 24.3387 30.1688 24.3533C30.3688 24.5166 30.5771 24.6783 30.7888 24.8333C30.8055 24.8455 30.8188 24.8616 30.8277 24.8803C30.8366 24.8989 30.8408 24.9195 30.8398 24.9401C30.8388 24.9608 30.8327 24.9808 30.8221 24.9986C30.8114 25.0163 30.7965 25.0311 30.7788 25.0416C29.7822 25.6149 28.7456 26.0999 27.6573 26.5032C27.6406 26.5092 27.6254 26.5188 27.6127 26.5312C27.5999 26.5436 27.59 26.5586 27.5835 26.5752C27.5771 26.5918 27.5742 26.6095 27.5752 26.6273C27.5761 26.645 27.5808 26.6624 27.589 26.6782C28.1889 27.8231 28.8756 28.913 29.6305 29.9479C29.6462 29.9692 29.6681 29.9851 29.6931 29.9934C29.7182 30.0018 29.7452 30.0022 29.7705 29.9946C33.3609 28.9141 36.7427 27.2344 39.7732 25.0266C39.788 25.0163 39.8004 25.0029 39.8096 24.9874C39.8188 24.9719 39.8245 24.9545 39.8265 24.9366C40.6598 16.4472 38.4299 9.07099 33.9119 2.53475C33.9008 2.51351 33.8825 2.49695 33.8602 2.48809ZM13.3666 20.4636C11.3967 20.4636 9.77182 18.682 9.77182 16.4972C9.77182 14.3106 11.3651 12.5308 13.3666 12.5308C15.3831 12.5308 16.993 14.3256 16.9614 16.4972C16.9614 18.6837 15.3681 20.4636 13.3666 20.4636ZM26.6574 20.4636C24.6858 20.4636 23.0626 18.682 23.0626 16.4972C23.0626 14.3106 24.6542 12.5308 26.6574 12.5308C28.6739 12.5308 30.2838 14.3256 30.2521 16.4972C30.2521 18.6837 28.6756 20.4636 26.6574 20.4636Z" fill="white"/>
<path d="M171.922 9.99787C169.168 9.99787 166.92 12.2456 166.92 15C166.92 17.7544 169.168 20.0021 171.922 20.0021C174.677 20.0021 176.924 17.7544 176.924 15C176.924 12.2456 174.677 9.99787 171.922 9.99787ZM186.925 15C186.925 12.9286 186.944 10.876 186.827 8.80832C186.711 6.40669 186.163 4.27525 184.407 2.51907C182.647 0.759128 180.519 0.215011 178.118 0.098682C176.046 -0.0176466 173.994 0.00111617 171.926 0.00111617C169.855 0.00111617 167.802 -0.0176466 165.734 0.098682C163.333 0.215011 161.201 0.762881 159.445 2.51907C157.685 4.27901 157.141 6.40669 157.025 8.80832C156.908 10.8797 156.927 12.9324 156.927 15C156.927 17.0676 156.908 19.124 157.025 21.1917C157.141 23.5933 157.689 25.7247 159.445 27.4809C161.205 29.2409 163.333 29.785 165.734 29.9013C167.806 30.0176 169.858 29.9989 171.926 29.9989C173.997 29.9989 176.05 30.0176 178.118 29.9013C180.519 29.785 182.651 29.2371 184.407 27.4809C186.167 25.721 186.711 23.5933 186.827 21.1917C186.947 19.124 186.925 17.0714 186.925 15ZM171.922 22.6964C167.663 22.6964 164.226 19.2591 164.226 15C164.226 10.7409 167.663 7.30355 171.922 7.30355C176.181 7.30355 179.619 10.7409 179.619 15C179.619 19.2591 176.181 22.6964 171.922 22.6964ZM179.934 8.7858C178.94 8.7858 178.136 7.98276 178.136 6.98834C178.136 5.99392 178.94 5.19087 179.934 5.19087C180.928 5.19087 181.731 5.99392 181.731 6.98834C181.732 7.22447 181.685 7.45834 181.595 7.67655C181.505 7.89476 181.373 8.09303 181.206 8.26C181.039 8.42697 180.84 8.55936 180.622 8.64958C180.404 8.73981 180.17 8.7861 179.934 8.7858Z" fill="white"/>
<path d="M248.417 0H248.654C250.849 0.00800783 261.966 0.0880866 264.964 0.894208C265.87 1.14023 266.696 1.61978 267.358 2.28492C268.021 2.95007 268.498 3.77752 268.741 4.68458C269.01 5.69891 269.2 7.04155 269.328 8.42691L269.355 8.70451L269.413 9.39852L269.435 9.67613C269.608 12.1158 269.63 14.4007 269.632 14.8999V15.1001C269.63 15.6179 269.606 18.0577 269.413 20.5988L269.392 20.8791L269.368 21.1567C269.235 22.6835 269.037 24.1997 268.741 25.3154C268.499 26.2228 268.022 27.0507 267.359 27.7159C266.696 28.3812 265.87 28.8605 264.964 29.1058C261.867 29.9386 250.099 29.9973 248.468 30H248.089C247.264 30 243.852 29.984 240.276 29.8612L239.822 29.8452L239.59 29.8345L239.133 29.8158L238.677 29.7971C235.714 29.6663 232.892 29.4555 231.592 29.1031C230.686 28.8581 229.86 28.3792 229.197 27.7144C228.534 27.0496 228.058 26.2224 227.815 25.3154C227.519 24.2023 227.322 22.6835 227.188 21.1567L227.167 20.8764L227.145 20.5988C227.014 18.7901 226.941 16.9776 226.927 15.1642L226.927 14.8358C226.932 14.2619 226.953 12.2787 227.097 10.0899L227.116 9.81493L227.124 9.67613L227.145 9.39852L227.204 8.70451L227.231 8.42691C227.359 7.04155 227.548 5.69624 227.818 4.68458C228.06 3.77715 228.537 2.94931 229.199 2.28405C229.862 1.61879 230.689 1.13949 231.595 0.894208C232.895 0.547202 235.716 0.333659 238.679 0.200196L239.133 0.181511L239.592 0.165496L239.822 0.157488L240.278 0.138803C242.819 0.057055 245.36 0.0116724 247.902 0.0026694H248.417V0ZM244.01 8.56838V21.429L255.106 15.0013L244.01 8.56838Z" fill="white"/>
</svg>
