<svg width="42" height="40" viewBox="0 0 42 40" fill="none" xmlns="http://www.w3.org/2000/svg">
<path d="M21 0.185547C32.601 0.185547 42 7.73359 42 17.0406C42 26.3477 32.601 33.8957 21 33.8957C19.724 33.8957 18.4771 33.8066 17.2667 33.6285C16.0562 34.4969 9.05625 39.4992 8.39271 39.5957C8.39271 39.5957 8.12292 39.6996 7.88958 39.566C7.65625 39.4324 7.7 39.0688 7.7 39.0688C7.77292 38.5789 9.52292 32.4484 9.84375 31.3129C3.93021 28.3367 0 23.0523 0 17.0332C0 7.72617 9.39896 0.185547 21 0.185547ZM6.28542 12.0012C5.62917 12.0012 5.09687 12.543 5.09687 13.2109C5.09687 13.8789 5.62917 14.4207 6.28542 14.4207H8.17396V21.7461C8.17396 22.3992 8.72083 22.9262 9.38437 22.9262C10.0479 22.9262 10.5948 22.3992 10.5948 21.7461V14.4207H12.4833C13.1396 14.4207 13.6719 13.8789 13.6719 13.2109C13.6719 12.543 13.1396 12.0012 12.4833 12.0012H6.27812H6.28542ZM16.5521 12.0012C15.7646 12.016 15.1448 12.6246 14.9406 13.2184L12.0458 20.9816C11.6812 22.1469 12.0021 22.5773 12.3302 22.7332C12.5635 22.8445 12.8333 22.9039 13.1031 22.9039C13.6062 22.9039 13.9927 22.6961 14.1094 22.3621L14.7073 20.759H18.4042L19.0021 22.3547C19.1187 22.6887 19.5052 22.8965 20.0083 22.8965C20.2781 22.8965 20.5406 22.8371 20.7812 22.7258C21.1167 22.5699 21.4375 22.1395 21.0656 20.9742L18.1708 13.2184C17.9667 12.6246 17.3469 12.016 16.5521 12.0012ZM29.7427 12.0012C29.0719 12.0012 28.5323 12.5578 28.5323 13.2332V21.6719C28.5323 22.3547 29.0792 22.9039 29.7427 22.9039C30.4062 22.9039 30.9531 22.3473 30.9531 21.6719V18.9852L31.376 18.5547L34.2125 22.3844C34.4458 22.6961 34.7958 22.8742 35.1823 22.8742C35.4448 22.8742 35.7 22.7926 35.9115 22.6293C36.1667 22.4289 36.3344 22.1395 36.3781 21.8129C36.4219 21.4863 36.3417 21.1598 36.1448 20.9L33.1625 16.8773L35.926 14.0719C36.1156 13.8789 36.2104 13.6117 36.1958 13.3223C36.1812 13.0328 36.05 12.7582 35.8385 12.543C35.6125 12.3129 35.3062 12.1793 35.0073 12.1793C34.7448 12.1793 34.5115 12.2758 34.3365 12.4539L30.9604 15.8977V13.248C30.9604 12.5652 30.4135 12.016 29.75 12.016L29.7427 12.0012ZM23.0854 12.0012C22.4073 12.0012 21.8531 12.5578 21.8531 13.2332V21.6051C21.8531 22.2285 22.3708 22.7332 23.0125 22.7406H26.899C27.5406 22.7406 28.0583 22.2285 28.0583 21.6051C28.0583 20.9816 27.5333 20.477 26.899 20.477H24.325V13.2332C24.325 12.5504 23.7708 12.0012 23.0854 12.0012ZM17.7625 18.577H15.3417L16.5521 15.0813L17.7625 18.577Z" fill="white"/>
</svg>
